G04*
G04 #@! TF.GenerationSoftware,Altium Limited,Altium Designer,21.0.8 (223)*
G04*
G04 Layer_Physical_Order=2*
G04 Layer_Color=16711680*
%FSLAX25Y25*%
%MOIN*%
G70*
G04*
G04 #@! TF.SameCoordinates,EB823DBA-932E-4BE8-864B-9D8D28E1B991*
G04*
G04*
G04 #@! TF.FilePolarity,Positive*
G04*
G01*
G75*
%ADD10C,0.01000*%
%ADD23C,0.07874*%
%ADD24C,0.02500*%
G36*
X92959Y58121D02*
X92459Y57951D01*
X92021Y58521D01*
X90990Y59312D01*
X89789Y59810D01*
X88500Y59980D01*
X87211Y59810D01*
X86010Y59312D01*
X84979Y58521D01*
X84188Y57490D01*
X83690Y56289D01*
X83520Y55000D01*
X83690Y53711D01*
X84188Y52510D01*
X84979Y51479D01*
X86010Y50687D01*
X87211Y50190D01*
X88500Y50020D01*
X89789Y50190D01*
X90990Y50687D01*
X92021Y51479D01*
X92459Y52049D01*
X92959Y51880D01*
Y13620D01*
X92459Y13451D01*
X92021Y14021D01*
X90990Y14812D01*
X89789Y15310D01*
X88500Y15480D01*
X87211Y15310D01*
X86010Y14812D01*
X84979Y14021D01*
X84188Y12990D01*
X83690Y11789D01*
X83520Y10500D01*
X83690Y9211D01*
X84188Y8010D01*
X84979Y6979D01*
X86010Y6188D01*
X87211Y5690D01*
X88500Y5520D01*
X89789Y5690D01*
X90990Y6188D01*
X92021Y6979D01*
X92459Y7549D01*
X92959Y7380D01*
Y1529D01*
X1529D01*
Y12250D01*
X15748D01*
X16333Y12367D01*
X16829Y12698D01*
X17161Y13194D01*
X17277Y13780D01*
Y53150D01*
X17161Y53735D01*
X16829Y54231D01*
X16333Y54563D01*
X15748Y54679D01*
X1529D01*
Y65400D01*
X92959D01*
Y58121D01*
D02*
G37*
%LPC*%
G36*
X35000Y47195D02*
X34622Y47120D01*
X33878Y46622D01*
X33380Y45878D01*
X33305Y45500D01*
X35000D01*
Y47195D01*
D02*
G37*
G36*
X54356Y47051D02*
Y45357D01*
X56051D01*
X55976Y45734D01*
X55479Y46479D01*
X54734Y46976D01*
X54356Y47051D01*
D02*
G37*
G36*
X35000Y44500D02*
X33305D01*
X33380Y44122D01*
X33878Y43378D01*
X34622Y42881D01*
X35000Y42805D01*
Y44500D01*
D02*
G37*
G36*
X56051Y44357D02*
X54356D01*
Y42662D01*
X54734Y42737D01*
X55479Y43234D01*
X55976Y43979D01*
X56051Y44357D01*
D02*
G37*
G36*
X39300Y58294D02*
X38422Y58119D01*
X37678Y57622D01*
X37181Y56878D01*
X37006Y56000D01*
X37181Y55122D01*
X37678Y54378D01*
X38422Y53881D01*
X39300Y53706D01*
X40178Y53881D01*
X40922Y54378D01*
X40984Y54471D01*
X48291D01*
X59471Y43291D01*
Y18533D01*
X58309Y17372D01*
X58200Y17394D01*
X57322Y17220D01*
X56578Y16722D01*
X56081Y15978D01*
X55906Y15100D01*
X56081Y14222D01*
X56578Y13478D01*
X57172Y13081D01*
X57020Y12581D01*
X54785D01*
X47029Y20337D01*
Y22816D01*
X47122Y22878D01*
X47620Y23622D01*
X47794Y24500D01*
X47620Y25378D01*
X47122Y26122D01*
X46378Y26619D01*
X45500Y26794D01*
X44622Y26619D01*
X43878Y26122D01*
X43529Y25601D01*
X43029Y25752D01*
Y34666D01*
X51682Y43320D01*
X52199Y43287D01*
X52234Y43234D01*
X52979Y42737D01*
X53356Y42662D01*
Y44857D01*
Y47051D01*
X52979Y46976D01*
X52234Y46479D01*
X52201Y46429D01*
X37251D01*
X37122Y46622D01*
X36378Y47120D01*
X36000Y47195D01*
Y45000D01*
Y42805D01*
X36378Y42881D01*
X37111Y43371D01*
X46754D01*
X46946Y42909D01*
X40419Y36382D01*
X40087Y35885D01*
X39971Y35300D01*
Y33066D01*
X39471Y32794D01*
X38700Y32948D01*
X37822Y32773D01*
X37078Y32276D01*
X36581Y31532D01*
X36406Y30654D01*
X36465Y30355D01*
X32541Y26431D01*
X32250Y26489D01*
X31372Y26314D01*
X30628Y25817D01*
X30130Y25073D01*
X29956Y24195D01*
X30130Y23317D01*
X30628Y22572D01*
X31372Y22075D01*
X32250Y21901D01*
X33128Y22075D01*
X33872Y22572D01*
X34370Y23317D01*
X34523Y24087D01*
X38819Y28383D01*
X39471Y28513D01*
X39971Y28241D01*
Y13134D01*
X35366Y8529D01*
X23184D01*
X23122Y8622D01*
X22378Y9120D01*
X22000Y9195D01*
Y7000D01*
Y4805D01*
X22378Y4881D01*
X23122Y5378D01*
X23184Y5471D01*
X36000D01*
X36585Y5587D01*
X37081Y5919D01*
X41500Y10337D01*
X45019Y6819D01*
X45515Y6487D01*
X46100Y6371D01*
X71816D01*
X71878Y6278D01*
X72622Y5781D01*
X73000Y5705D01*
Y7900D01*
Y10095D01*
X72622Y10019D01*
X71878Y9522D01*
X71816Y9429D01*
X63924D01*
X63772Y9929D01*
X63833Y9970D01*
X67081Y13219D01*
X67413Y13715D01*
X67529Y14300D01*
Y51316D01*
X67622Y51378D01*
X68119Y52122D01*
X68294Y53000D01*
X68119Y53878D01*
X67622Y54622D01*
X66878Y55120D01*
X66000Y55294D01*
X65122Y55120D01*
X64378Y54622D01*
X63881Y53878D01*
X63706Y53000D01*
X63881Y52122D01*
X64378Y51378D01*
X64471Y51316D01*
Y14933D01*
X62118Y12581D01*
X59380D01*
X59228Y13081D01*
X59822Y13478D01*
X60319Y14222D01*
X60494Y15100D01*
X60472Y15209D01*
X62081Y16819D01*
X62413Y17315D01*
X62529Y17900D01*
Y43925D01*
X62413Y44510D01*
X62081Y45006D01*
X50006Y57081D01*
X49510Y57413D01*
X48925Y57529D01*
X40984D01*
X40922Y57622D01*
X40178Y58119D01*
X39300Y58294D01*
D02*
G37*
G36*
X74000Y10095D02*
Y8400D01*
X75695D01*
X75619Y8778D01*
X75122Y9522D01*
X74378Y10019D01*
X74000Y10095D01*
D02*
G37*
G36*
X21000Y9195D02*
X20622Y9120D01*
X19878Y8622D01*
X19380Y7878D01*
X19305Y7500D01*
X21000D01*
Y9195D01*
D02*
G37*
G36*
X75695Y7400D02*
X74000D01*
Y5705D01*
X74378Y5781D01*
X75122Y6278D01*
X75619Y7022D01*
X75695Y7400D01*
D02*
G37*
G36*
X21000Y6500D02*
X19305D01*
X19380Y6122D01*
X19878Y5378D01*
X20622Y4881D01*
X21000Y4805D01*
Y6500D01*
D02*
G37*
%LPD*%
G36*
X43878Y22878D02*
X43971Y22816D01*
Y19703D01*
X44087Y19118D01*
X44419Y18622D01*
X53070Y9970D01*
X53131Y9929D01*
X52979Y9429D01*
X46733D01*
X43029Y13134D01*
Y23248D01*
X43529Y23399D01*
X43878Y22878D01*
D02*
G37*
D10*
X35600Y44900D02*
X53813D01*
X41500Y35300D02*
X51056Y44857D01*
X53813Y44900D02*
X53856Y44857D01*
X35500Y45000D02*
X35600Y44900D01*
X32468Y24195D02*
X38700Y30427D01*
X32250Y24195D02*
X32468D01*
X38700Y30427D02*
Y30654D01*
X21500Y7000D02*
X36000D01*
X41500Y12500D01*
X58200Y15100D02*
X61000Y17900D01*
Y43925D01*
X48925Y56000D02*
X61000Y43925D01*
X46100Y7900D02*
X73500D01*
X41500Y12500D02*
Y35300D01*
Y12500D02*
X46100Y7900D01*
X39300Y56000D02*
X48925D01*
X45500Y19703D02*
Y24500D01*
Y19703D02*
X54152Y11052D01*
X62752D01*
X66000Y14300D01*
Y53000D01*
D23*
X88500Y10500D02*
D03*
Y55000D02*
D03*
D24*
X53856Y44857D02*
D03*
X73500Y7900D02*
D03*
X35500Y45000D02*
D03*
X32250Y24195D02*
D03*
X21500Y7000D02*
D03*
X58200Y15100D02*
D03*
X39300Y56000D02*
D03*
X45500Y24500D02*
D03*
X66000Y53000D02*
D03*
X38700Y30654D02*
D03*
M02*
