G04*
G04 #@! TF.GenerationSoftware,Altium Limited,Altium Designer,21.0.8 (223)*
G04*
G04 Layer_Color=65535*
%FSLAX25Y25*%
%MOIN*%
G70*
G04*
G04 #@! TF.SameCoordinates,EB823DBA-932E-4BE8-864B-9D8D28E1B991*
G04*
G04*
G04 #@! TF.FilePolarity,Positive*
G04*
G01*
G75*
%ADD10C,0.01000*%
%ADD11C,0.00500*%
%ADD12C,0.00787*%
G36*
X82825Y19610D02*
X82865Y19606D01*
X82912Y19603D01*
X82963Y19599D01*
X83018Y19588D01*
X83134Y19566D01*
X83254Y19530D01*
X83316Y19508D01*
X83375Y19482D01*
X83429Y19453D01*
X83480Y19417D01*
X83484Y19413D01*
X83491Y19410D01*
X83506Y19395D01*
X83524Y19381D01*
X83546Y19362D01*
X83568Y19337D01*
X83593Y19308D01*
X83622Y19275D01*
X83651Y19239D01*
X83680Y19199D01*
X83710Y19155D01*
X83735Y19104D01*
X83764Y19053D01*
X83786Y18998D01*
X83808Y18936D01*
X83822Y18875D01*
X83316Y18780D01*
Y18784D01*
X83313Y18787D01*
X83305Y18809D01*
X83291Y18842D01*
X83269Y18886D01*
X83244Y18933D01*
X83207Y18980D01*
X83163Y19027D01*
X83113Y19071D01*
X83105Y19075D01*
X83087Y19089D01*
X83054Y19108D01*
X83014Y19126D01*
X82960Y19148D01*
X82898Y19162D01*
X82829Y19177D01*
X82749Y19180D01*
X82716D01*
X82694Y19177D01*
X82665Y19173D01*
X82632Y19170D01*
X82596Y19162D01*
X82556Y19155D01*
X82472Y19129D01*
X82428Y19111D01*
X82385Y19089D01*
X82341Y19064D01*
X82297Y19038D01*
X82257Y19002D01*
X82217Y18966D01*
X82213Y18962D01*
X82210Y18955D01*
X82199Y18944D01*
X82188Y18926D01*
X82173Y18904D01*
X82155Y18878D01*
X82137Y18846D01*
X82122Y18809D01*
X82104Y18765D01*
X82086Y18718D01*
X82068Y18667D01*
X82053Y18612D01*
X82042Y18551D01*
X82031Y18482D01*
X82028Y18412D01*
X82024Y18336D01*
Y18332D01*
Y18318D01*
Y18292D01*
X82028Y18263D01*
X82031Y18223D01*
X82035Y18183D01*
X82042Y18132D01*
X82050Y18081D01*
X82072Y17972D01*
X82108Y17859D01*
X82130Y17804D01*
X82155Y17753D01*
X82188Y17703D01*
X82221Y17659D01*
X82224Y17655D01*
X82232Y17648D01*
X82243Y17637D01*
X82257Y17623D01*
X82279Y17608D01*
X82301Y17586D01*
X82330Y17568D01*
X82363Y17546D01*
X82399Y17524D01*
X82436Y17506D01*
X82526Y17470D01*
X82577Y17455D01*
X82628Y17444D01*
X82687Y17437D01*
X82745Y17433D01*
X82774D01*
X82803Y17437D01*
X82847Y17440D01*
X82894Y17448D01*
X82949Y17459D01*
X83007Y17473D01*
X83065Y17495D01*
X83069D01*
X83073Y17499D01*
X83091Y17506D01*
X83123Y17521D01*
X83160Y17539D01*
X83204Y17561D01*
X83251Y17586D01*
X83298Y17615D01*
X83342Y17648D01*
Y17972D01*
X82759D01*
Y18398D01*
X83855D01*
Y17386D01*
X83848Y17379D01*
X83837Y17371D01*
X83826Y17360D01*
X83808Y17346D01*
X83790Y17331D01*
X83739Y17295D01*
X83669Y17255D01*
X83589Y17208D01*
X83498Y17160D01*
X83389Y17117D01*
X83385D01*
X83375Y17113D01*
X83360Y17106D01*
X83338Y17098D01*
X83309Y17091D01*
X83276Y17080D01*
X83240Y17069D01*
X83200Y17058D01*
X83109Y17036D01*
X83003Y17018D01*
X82894Y17004D01*
X82778Y17000D01*
X82738D01*
X82712Y17004D01*
X82676D01*
X82636Y17007D01*
X82592Y17015D01*
X82541Y17022D01*
X82436Y17040D01*
X82319Y17069D01*
X82199Y17109D01*
X82144Y17135D01*
X82086Y17164D01*
X82082Y17167D01*
X82075Y17171D01*
X82057Y17182D01*
X82039Y17197D01*
X82013Y17211D01*
X81988Y17233D01*
X81955Y17258D01*
X81922Y17288D01*
X81849Y17353D01*
X81777Y17437D01*
X81708Y17531D01*
X81646Y17641D01*
Y17644D01*
X81638Y17655D01*
X81631Y17673D01*
X81624Y17695D01*
X81613Y17724D01*
X81598Y17757D01*
X81587Y17797D01*
X81573Y17841D01*
X81558Y17888D01*
X81547Y17943D01*
X81522Y18056D01*
X81507Y18179D01*
X81500Y18314D01*
Y18318D01*
Y18332D01*
Y18354D01*
X81504Y18380D01*
Y18416D01*
X81507Y18456D01*
X81515Y18500D01*
X81522Y18551D01*
X81540Y18656D01*
X81569Y18776D01*
X81609Y18896D01*
X81635Y18955D01*
X81664Y19013D01*
X81667Y19017D01*
X81671Y19027D01*
X81682Y19042D01*
X81693Y19064D01*
X81711Y19089D01*
X81733Y19118D01*
X81758Y19151D01*
X81784Y19188D01*
X81817Y19224D01*
X81853Y19264D01*
X81893Y19304D01*
X81937Y19344D01*
X81984Y19381D01*
X82031Y19421D01*
X82144Y19486D01*
X82148D01*
X82155Y19493D01*
X82170Y19497D01*
X82188Y19508D01*
X82213Y19515D01*
X82239Y19526D01*
X82275Y19537D01*
X82312Y19552D01*
X82352Y19563D01*
X82399Y19573D01*
X82450Y19584D01*
X82501Y19595D01*
X82617Y19610D01*
X82749Y19613D01*
X82792D01*
X82825Y19610D01*
D02*
G37*
G36*
X86330Y17047D02*
X85821D01*
X84798Y18707D01*
Y17047D01*
X84328D01*
Y19566D01*
X84820D01*
X85861Y17870D01*
Y19566D01*
X86330D01*
Y17047D01*
D02*
G37*
G36*
X87903Y19563D02*
X87972Y19559D01*
X88048Y19555D01*
X88128Y19544D01*
X88205Y19533D01*
X88274Y19515D01*
X88278D01*
X88285Y19512D01*
X88296Y19508D01*
X88310Y19504D01*
X88354Y19486D01*
X88405Y19461D01*
X88463Y19428D01*
X88529Y19388D01*
X88591Y19341D01*
X88653Y19282D01*
X88656D01*
X88660Y19275D01*
X88678Y19253D01*
X88707Y19217D01*
X88740Y19170D01*
X88780Y19111D01*
X88820Y19042D01*
X88860Y18962D01*
X88893Y18875D01*
Y18871D01*
X88897Y18864D01*
X88900Y18849D01*
X88907Y18831D01*
X88911Y18809D01*
X88918Y18780D01*
X88926Y18747D01*
X88937Y18711D01*
X88944Y18671D01*
X88951Y18623D01*
X88958Y18576D01*
X88962Y18521D01*
X88973Y18409D01*
X88977Y18281D01*
Y18278D01*
Y18267D01*
Y18252D01*
Y18230D01*
X88973Y18201D01*
Y18172D01*
X88969Y18136D01*
X88966Y18096D01*
X88958Y18012D01*
X88944Y17925D01*
X88922Y17834D01*
X88897Y17746D01*
Y17743D01*
X88893Y17735D01*
X88886Y17721D01*
X88878Y17699D01*
X88871Y17677D01*
X88856Y17652D01*
X88827Y17586D01*
X88791Y17517D01*
X88744Y17440D01*
X88689Y17368D01*
X88627Y17299D01*
X88620Y17291D01*
X88602Y17277D01*
X88573Y17255D01*
X88533Y17226D01*
X88481Y17193D01*
X88423Y17160D01*
X88350Y17127D01*
X88270Y17098D01*
X88267D01*
X88263Y17095D01*
X88252D01*
X88241Y17091D01*
X88201Y17084D01*
X88150Y17073D01*
X88088Y17062D01*
X88012Y17055D01*
X87921Y17051D01*
X87823Y17047D01*
X86869D01*
Y19566D01*
X87874D01*
X87903Y19563D01*
D02*
G37*
G36*
X86754Y37047D02*
X86204D01*
X85302Y39566D01*
X85851D01*
X86492Y37703D01*
X87107Y39566D01*
X87650D01*
X86754Y37047D01*
D02*
G37*
G36*
X85083Y39082D02*
X84170D01*
X84093Y38653D01*
X84097D01*
X84101Y38656D01*
X84122Y38667D01*
X84155Y38678D01*
X84195Y38696D01*
X84246Y38711D01*
X84301Y38722D01*
X84363Y38733D01*
X84425Y38736D01*
X84457D01*
X84479Y38733D01*
X84505Y38729D01*
X84537Y38725D01*
X84574Y38718D01*
X84614Y38707D01*
X84698Y38678D01*
X84745Y38660D01*
X84789Y38638D01*
X84836Y38609D01*
X84883Y38576D01*
X84927Y38540D01*
X84971Y38500D01*
X84974Y38496D01*
X84982Y38489D01*
X84992Y38474D01*
X85007Y38456D01*
X85022Y38434D01*
X85043Y38405D01*
X85062Y38372D01*
X85083Y38336D01*
X85105Y38296D01*
X85123Y38249D01*
X85145Y38198D01*
X85160Y38147D01*
X85174Y38088D01*
X85185Y38026D01*
X85193Y37961D01*
X85196Y37892D01*
Y37888D01*
Y37877D01*
Y37863D01*
X85193Y37841D01*
Y37812D01*
X85185Y37779D01*
X85182Y37743D01*
X85174Y37706D01*
X85153Y37619D01*
X85120Y37524D01*
X85098Y37473D01*
X85076Y37426D01*
X85047Y37379D01*
X85014Y37331D01*
X85011Y37328D01*
X85003Y37317D01*
X84989Y37302D01*
X84971Y37280D01*
X84945Y37255D01*
X84912Y37226D01*
X84876Y37197D01*
X84836Y37168D01*
X84789Y37135D01*
X84738Y37106D01*
X84683Y37076D01*
X84621Y37051D01*
X84556Y37029D01*
X84486Y37015D01*
X84410Y37004D01*
X84330Y37000D01*
X84297D01*
X84272Y37004D01*
X84243Y37007D01*
X84206Y37011D01*
X84170Y37015D01*
X84126Y37022D01*
X84039Y37044D01*
X83940Y37080D01*
X83893Y37098D01*
X83846Y37124D01*
X83802Y37153D01*
X83758Y37186D01*
X83755Y37189D01*
X83748Y37193D01*
X83737Y37204D01*
X83722Y37218D01*
X83707Y37240D01*
X83686Y37262D01*
X83667Y37288D01*
X83646Y37317D01*
X83620Y37353D01*
X83598Y37389D01*
X83558Y37477D01*
X83522Y37575D01*
X83511Y37630D01*
X83500Y37688D01*
X83981Y37739D01*
Y37732D01*
X83984Y37714D01*
X83991Y37681D01*
X84002Y37644D01*
X84017Y37604D01*
X84039Y37561D01*
X84068Y37521D01*
X84101Y37481D01*
X84104Y37477D01*
X84119Y37466D01*
X84141Y37451D01*
X84170Y37433D01*
X84202Y37415D01*
X84243Y37400D01*
X84290Y37389D01*
X84337Y37386D01*
X84345D01*
X84363Y37389D01*
X84392Y37393D01*
X84428Y37400D01*
X84468Y37415D01*
X84512Y37437D01*
X84556Y37470D01*
X84596Y37510D01*
X84599Y37517D01*
X84614Y37532D01*
X84628Y37561D01*
X84650Y37604D01*
X84668Y37655D01*
X84687Y37717D01*
X84698Y37793D01*
X84701Y37881D01*
Y37885D01*
Y37892D01*
Y37903D01*
Y37921D01*
X84698Y37961D01*
X84687Y38012D01*
X84676Y38070D01*
X84658Y38128D01*
X84632Y38183D01*
X84596Y38230D01*
X84592Y38234D01*
X84577Y38249D01*
X84552Y38267D01*
X84523Y38292D01*
X84483Y38314D01*
X84435Y38332D01*
X84381Y38347D01*
X84323Y38350D01*
X84301D01*
X84286Y38347D01*
X84250Y38339D01*
X84199Y38329D01*
X84141Y38307D01*
X84079Y38274D01*
X84046Y38252D01*
X84013Y38227D01*
X83981Y38198D01*
X83948Y38165D01*
X83558Y38219D01*
X83806Y39533D01*
X85083D01*
Y39082D01*
D02*
G37*
G36*
X38767Y37695D02*
X36943D01*
X36947Y37691D01*
X36954Y37684D01*
X36965Y37669D01*
X36983Y37647D01*
X37005Y37622D01*
X37027Y37593D01*
X37052Y37556D01*
X37081Y37516D01*
X37110Y37473D01*
X37140Y37425D01*
X37172Y37374D01*
X37201Y37320D01*
X37256Y37203D01*
X37307Y37072D01*
X36870D01*
Y37076D01*
X36867Y37080D01*
X36863Y37090D01*
X36859Y37105D01*
X36841Y37141D01*
X36819Y37192D01*
X36790Y37254D01*
X36750Y37323D01*
X36699Y37400D01*
X36641Y37480D01*
X36637Y37484D01*
X36634Y37491D01*
X36623Y37502D01*
X36608Y37516D01*
X36572Y37556D01*
X36525Y37600D01*
X36466Y37651D01*
X36393Y37702D01*
X36317Y37749D01*
X36233Y37786D01*
Y38179D01*
X38767D01*
Y37695D01*
D02*
G37*
G36*
Y36006D02*
X37107Y34983D01*
X38767D01*
Y34513D01*
X36248D01*
Y35005D01*
X37944Y36046D01*
X36248D01*
Y36515D01*
X38767D01*
Y36006D01*
D02*
G37*
G36*
X36674Y33439D02*
X38767D01*
Y32930D01*
X36674D01*
Y32184D01*
X36248D01*
Y34182D01*
X36674D01*
Y33439D01*
D02*
G37*
G36*
X38101Y31925D02*
X38144Y31918D01*
X38195Y31911D01*
X38254Y31896D01*
X38312Y31874D01*
X38374Y31849D01*
X38381Y31845D01*
X38399Y31834D01*
X38428Y31816D01*
X38465Y31791D01*
X38508Y31761D01*
X38548Y31721D01*
X38592Y31681D01*
X38632Y31630D01*
X38636Y31623D01*
X38647Y31605D01*
X38665Y31576D01*
X38683Y31536D01*
X38705Y31485D01*
X38723Y31427D01*
X38741Y31361D01*
X38752Y31288D01*
Y31274D01*
X38756Y31259D01*
Y31223D01*
X38759Y31197D01*
Y31128D01*
X38763Y31084D01*
Y30975D01*
X38767Y30913D01*
Y29821D01*
X36248D01*
Y30928D01*
X36252Y30993D01*
X36255Y31066D01*
X36259Y31139D01*
X36266Y31208D01*
X36273Y31270D01*
Y31277D01*
X36277Y31295D01*
X36284Y31321D01*
X36295Y31357D01*
X36310Y31397D01*
X36328Y31441D01*
X36350Y31488D01*
X36379Y31532D01*
X36382Y31536D01*
X36393Y31550D01*
X36412Y31572D01*
X36434Y31601D01*
X36466Y31630D01*
X36503Y31663D01*
X36543Y31696D01*
X36590Y31725D01*
X36597Y31729D01*
X36612Y31736D01*
X36641Y31751D01*
X36677Y31765D01*
X36721Y31780D01*
X36768Y31794D01*
X36827Y31801D01*
X36885Y31805D01*
X36889D01*
X36892D01*
X36914D01*
X36947Y31801D01*
X36990Y31794D01*
X37041Y31780D01*
X37096Y31765D01*
X37151Y31740D01*
X37209Y31707D01*
X37216Y31703D01*
X37234Y31689D01*
X37260Y31667D01*
X37293Y31641D01*
X37325Y31605D01*
X37365Y31561D01*
X37398Y31510D01*
X37431Y31452D01*
Y31456D01*
X37435Y31463D01*
X37438Y31474D01*
X37442Y31488D01*
X37460Y31532D01*
X37485Y31583D01*
X37515Y31638D01*
X37555Y31699D01*
X37602Y31754D01*
X37660Y31805D01*
X37667Y31809D01*
X37689Y31823D01*
X37722Y31845D01*
X37766Y31867D01*
X37824Y31889D01*
X37886Y31911D01*
X37959Y31925D01*
X38039Y31929D01*
X38042D01*
X38046D01*
X38068D01*
X38101Y31925D01*
D02*
G37*
G36*
X30026Y12624D02*
X30066Y12617D01*
X30117Y12606D01*
X30172Y12588D01*
X30226Y12566D01*
X30285Y12533D01*
X30132Y12115D01*
X30128Y12118D01*
X30110Y12126D01*
X30088Y12140D01*
X30059Y12155D01*
X30023Y12169D01*
X29986Y12184D01*
X29946Y12191D01*
X29906Y12195D01*
X29892D01*
X29870Y12191D01*
X29848Y12188D01*
X29822Y12180D01*
X29793Y12169D01*
X29764Y12155D01*
X29735Y12137D01*
X29732Y12133D01*
X29724Y12126D01*
X29710Y12111D01*
X29695Y12089D01*
X29677Y12064D01*
X29659Y12027D01*
X29640Y11984D01*
X29626Y11933D01*
Y11925D01*
X29622Y11914D01*
X29619Y11903D01*
Y11885D01*
X29615Y11863D01*
X29611Y11834D01*
X29608Y11802D01*
X29604Y11765D01*
X29601Y11718D01*
X29597Y11671D01*
Y11612D01*
X29593Y11551D01*
X29590Y11481D01*
Y11405D01*
Y11321D01*
Y10761D01*
X29105D01*
Y12588D01*
X29553D01*
Y12329D01*
X29557Y12333D01*
X29571Y12355D01*
X29593Y12388D01*
X29622Y12428D01*
X29651Y12468D01*
X29688Y12508D01*
X29721Y12544D01*
X29757Y12570D01*
X29761Y12573D01*
X29772Y12581D01*
X29793Y12588D01*
X29819Y12599D01*
X29848Y12610D01*
X29884Y12621D01*
X29921Y12624D01*
X29965Y12628D01*
X29994D01*
X30026Y12624D01*
D02*
G37*
G36*
X23140Y10761D02*
X22670D01*
X22666Y12741D01*
X22171Y10761D01*
X21680D01*
X21185Y12741D01*
Y10761D01*
X20715D01*
Y13280D01*
X21476D01*
X21927Y11558D01*
X22375Y13280D01*
X23140D01*
Y10761D01*
D02*
G37*
G36*
X27872Y12624D02*
X27908Y12621D01*
X27948Y12613D01*
X27995Y12606D01*
X28043Y12595D01*
X28097Y12581D01*
X28152Y12562D01*
X28206Y12541D01*
X28265Y12515D01*
X28323Y12482D01*
X28377Y12446D01*
X28432Y12406D01*
X28483Y12359D01*
X28487Y12355D01*
X28494Y12348D01*
X28508Y12329D01*
X28523Y12311D01*
X28545Y12282D01*
X28567Y12253D01*
X28592Y12213D01*
X28618Y12173D01*
X28640Y12126D01*
X28665Y12075D01*
X28687Y12016D01*
X28709Y11958D01*
X28723Y11893D01*
X28738Y11827D01*
X28745Y11754D01*
X28749Y11678D01*
Y11674D01*
Y11660D01*
Y11638D01*
X28745Y11609D01*
X28741Y11572D01*
X28734Y11532D01*
X28727Y11485D01*
X28716Y11438D01*
X28701Y11383D01*
X28683Y11328D01*
X28661Y11270D01*
X28636Y11212D01*
X28603Y11154D01*
X28567Y11099D01*
X28527Y11045D01*
X28479Y10990D01*
X28476Y10986D01*
X28468Y10979D01*
X28454Y10964D01*
X28432Y10946D01*
X28407Y10928D01*
X28374Y10906D01*
X28337Y10881D01*
X28297Y10855D01*
X28250Y10830D01*
X28199Y10804D01*
X28144Y10782D01*
X28083Y10764D01*
X28021Y10746D01*
X27951Y10731D01*
X27882Y10724D01*
X27806Y10721D01*
X27781D01*
X27762Y10724D01*
X27740D01*
X27715Y10728D01*
X27653Y10735D01*
X27577Y10750D01*
X27496Y10768D01*
X27413Y10797D01*
X27325Y10833D01*
X27322D01*
X27314Y10837D01*
X27304Y10844D01*
X27289Y10855D01*
X27249Y10881D01*
X27198Y10917D01*
X27143Y10964D01*
X27085Y11023D01*
X27031Y11088D01*
X26980Y11165D01*
Y11168D01*
X26976Y11175D01*
X26969Y11186D01*
X26961Y11205D01*
X26954Y11226D01*
X26943Y11252D01*
X26932Y11281D01*
X26921Y11314D01*
X26910Y11350D01*
X26900Y11390D01*
X26881Y11481D01*
X26867Y11587D01*
X26863Y11700D01*
Y11703D01*
Y11711D01*
Y11725D01*
X26867Y11740D01*
Y11762D01*
X26871Y11787D01*
X26878Y11849D01*
X26892Y11918D01*
X26914Y11994D01*
X26940Y12078D01*
X26980Y12162D01*
Y12166D01*
X26987Y12173D01*
X26991Y12184D01*
X27002Y12198D01*
X27031Y12238D01*
X27067Y12289D01*
X27114Y12344D01*
X27173Y12402D01*
X27238Y12457D01*
X27314Y12508D01*
X27318D01*
X27325Y12511D01*
X27336Y12519D01*
X27355Y12526D01*
X27373Y12537D01*
X27398Y12544D01*
X27427Y12555D01*
X27457Y12570D01*
X27529Y12592D01*
X27613Y12610D01*
X27704Y12624D01*
X27802Y12628D01*
X27842D01*
X27872Y12624D01*
D02*
G37*
G36*
X26310Y12588D02*
X26641D01*
Y12202D01*
X26310D01*
Y11463D01*
Y11460D01*
Y11452D01*
Y11441D01*
Y11427D01*
Y11390D01*
Y11347D01*
X26313Y11303D01*
Y11259D01*
Y11226D01*
X26317Y11212D01*
Y11205D01*
X26321Y11197D01*
X26328Y11183D01*
X26339Y11165D01*
X26361Y11143D01*
X26368Y11139D01*
X26383Y11132D01*
X26408Y11125D01*
X26441Y11121D01*
X26456D01*
X26470Y11125D01*
X26492Y11128D01*
X26521Y11132D01*
X26554Y11139D01*
X26594Y11150D01*
X26638Y11165D01*
X26681Y10790D01*
X26678D01*
X26674Y10786D01*
X26652Y10779D01*
X26616Y10768D01*
X26568Y10757D01*
X26514Y10742D01*
X26448Y10731D01*
X26375Y10724D01*
X26299Y10721D01*
X26277D01*
X26252Y10724D01*
X26219Y10728D01*
X26182Y10731D01*
X26142Y10739D01*
X26102Y10750D01*
X26062Y10764D01*
X26059Y10768D01*
X26044Y10772D01*
X26026Y10782D01*
X26004Y10793D01*
X25953Y10830D01*
X25928Y10852D01*
X25906Y10877D01*
X25902Y10881D01*
X25899Y10892D01*
X25891Y10906D01*
X25880Y10928D01*
X25870Y10954D01*
X25859Y10986D01*
X25848Y11023D01*
X25840Y11063D01*
Y11066D01*
X25837Y11081D01*
Y11103D01*
X25833Y11139D01*
X25829Y11186D01*
Y11245D01*
X25826Y11277D01*
Y11317D01*
Y11358D01*
Y11405D01*
Y12202D01*
X25604D01*
Y12588D01*
X25826D01*
Y12952D01*
X26310Y13236D01*
Y12588D01*
D02*
G37*
G36*
X24548Y12624D02*
X24585Y12621D01*
X24625Y12613D01*
X24672Y12606D01*
X24719Y12595D01*
X24774Y12581D01*
X24828Y12562D01*
X24883Y12541D01*
X24941Y12515D01*
X24999Y12482D01*
X25054Y12446D01*
X25109Y12406D01*
X25160Y12359D01*
X25163Y12355D01*
X25171Y12348D01*
X25185Y12329D01*
X25200Y12311D01*
X25221Y12282D01*
X25243Y12253D01*
X25269Y12213D01*
X25294Y12173D01*
X25316Y12126D01*
X25342Y12075D01*
X25363Y12016D01*
X25385Y11958D01*
X25400Y11893D01*
X25414Y11827D01*
X25422Y11754D01*
X25425Y11678D01*
Y11674D01*
Y11660D01*
Y11638D01*
X25422Y11609D01*
X25418Y11572D01*
X25411Y11532D01*
X25403Y11485D01*
X25393Y11438D01*
X25378Y11383D01*
X25360Y11328D01*
X25338Y11270D01*
X25313Y11212D01*
X25280Y11154D01*
X25243Y11099D01*
X25203Y11045D01*
X25156Y10990D01*
X25152Y10986D01*
X25145Y10979D01*
X25131Y10964D01*
X25109Y10946D01*
X25083Y10928D01*
X25051Y10906D01*
X25014Y10881D01*
X24974Y10855D01*
X24927Y10830D01*
X24876Y10804D01*
X24821Y10782D01*
X24759Y10764D01*
X24697Y10746D01*
X24628Y10731D01*
X24559Y10724D01*
X24483Y10721D01*
X24457D01*
X24439Y10724D01*
X24417D01*
X24392Y10728D01*
X24330Y10735D01*
X24253Y10750D01*
X24173Y10768D01*
X24090Y10797D01*
X24002Y10833D01*
X23999D01*
X23991Y10837D01*
X23980Y10844D01*
X23966Y10855D01*
X23926Y10881D01*
X23875Y10917D01*
X23820Y10964D01*
X23762Y11023D01*
X23707Y11088D01*
X23656Y11165D01*
Y11168D01*
X23653Y11175D01*
X23645Y11186D01*
X23638Y11205D01*
X23631Y11226D01*
X23620Y11252D01*
X23609Y11281D01*
X23598Y11314D01*
X23587Y11350D01*
X23576Y11390D01*
X23558Y11481D01*
X23543Y11587D01*
X23540Y11700D01*
Y11703D01*
Y11711D01*
Y11725D01*
X23543Y11740D01*
Y11762D01*
X23547Y11787D01*
X23554Y11849D01*
X23569Y11918D01*
X23591Y11994D01*
X23616Y12078D01*
X23656Y12162D01*
Y12166D01*
X23664Y12173D01*
X23667Y12184D01*
X23678Y12198D01*
X23707Y12238D01*
X23744Y12289D01*
X23791Y12344D01*
X23849Y12402D01*
X23915Y12457D01*
X23991Y12508D01*
X23995D01*
X24002Y12511D01*
X24013Y12519D01*
X24031Y12526D01*
X24049Y12537D01*
X24075Y12544D01*
X24104Y12555D01*
X24133Y12570D01*
X24206Y12592D01*
X24290Y12610D01*
X24381Y12624D01*
X24479Y12628D01*
X24519D01*
X24548Y12624D01*
D02*
G37*
G36*
X46833Y23233D02*
X46349D01*
Y25057D01*
X46345Y25053D01*
X46338Y25046D01*
X46323Y25035D01*
X46301Y25017D01*
X46276Y24995D01*
X46247Y24973D01*
X46210Y24948D01*
X46170Y24919D01*
X46127Y24890D01*
X46079Y24860D01*
X46028Y24828D01*
X45974Y24799D01*
X45857Y24744D01*
X45726Y24693D01*
Y25130D01*
X45730D01*
X45733Y25133D01*
X45744Y25137D01*
X45759Y25141D01*
X45795Y25159D01*
X45846Y25181D01*
X45908Y25210D01*
X45977Y25250D01*
X46054Y25301D01*
X46134Y25359D01*
X46137Y25363D01*
X46145Y25366D01*
X46156Y25377D01*
X46170Y25392D01*
X46210Y25428D01*
X46254Y25475D01*
X46305Y25534D01*
X46356Y25607D01*
X46403Y25683D01*
X46440Y25767D01*
X46833D01*
Y23233D01*
D02*
G37*
G36*
X44336Y25749D02*
X44376D01*
X44416Y25745D01*
X44463D01*
X44558Y25734D01*
X44656Y25723D01*
X44747Y25705D01*
X44787Y25694D01*
X44824Y25683D01*
X44827D01*
X44831Y25679D01*
X44853Y25668D01*
X44885Y25650D01*
X44929Y25628D01*
X44976Y25592D01*
X45024Y25552D01*
X45071Y25501D01*
X45115Y25439D01*
Y25436D01*
X45118Y25432D01*
X45126Y25421D01*
X45133Y25410D01*
X45151Y25374D01*
X45173Y25326D01*
X45191Y25268D01*
X45209Y25203D01*
X45224Y25126D01*
X45228Y25046D01*
Y25042D01*
Y25035D01*
Y25017D01*
X45224Y24999D01*
Y24973D01*
X45220Y24948D01*
X45206Y24882D01*
X45188Y24806D01*
X45158Y24729D01*
X45115Y24649D01*
X45089Y24613D01*
X45060Y24576D01*
X45056Y24573D01*
X45053Y24569D01*
X45042Y24558D01*
X45027Y24547D01*
X45013Y24533D01*
X44991Y24515D01*
X44965Y24496D01*
X44936Y24478D01*
X44903Y24456D01*
X44864Y24438D01*
X44824Y24420D01*
X44780Y24402D01*
X44729Y24384D01*
X44678Y24369D01*
X44623Y24354D01*
X44561Y24343D01*
X44565D01*
X44569Y24340D01*
X44590Y24325D01*
X44620Y24307D01*
X44656Y24282D01*
X44700Y24249D01*
X44743Y24216D01*
X44791Y24176D01*
X44831Y24132D01*
X44834Y24129D01*
X44853Y24111D01*
X44874Y24081D01*
X44907Y24038D01*
X44951Y23983D01*
X44973Y23947D01*
X44998Y23910D01*
X45027Y23870D01*
X45056Y23827D01*
X45089Y23776D01*
X45122Y23725D01*
X45431Y23233D01*
X44820D01*
X44456Y23779D01*
X44452Y23783D01*
X44449Y23794D01*
X44438Y23808D01*
X44423Y23827D01*
X44409Y23848D01*
X44390Y23878D01*
X44350Y23936D01*
X44303Y24001D01*
X44259Y24060D01*
X44219Y24114D01*
X44201Y24132D01*
X44186Y24151D01*
X44183Y24154D01*
X44175Y24161D01*
X44161Y24176D01*
X44143Y24194D01*
X44117Y24209D01*
X44092Y24227D01*
X44063Y24242D01*
X44034Y24256D01*
X44030D01*
X44019Y24260D01*
X44001Y24267D01*
X43972Y24271D01*
X43935Y24278D01*
X43892Y24282D01*
X43841Y24285D01*
X43677D01*
Y23233D01*
X43167D01*
Y25752D01*
X44303D01*
X44336Y25749D01*
D02*
G37*
G36*
X43292Y62263D02*
X43325Y62260D01*
X43361Y62256D01*
X43401Y62248D01*
X43445Y62241D01*
X43540Y62216D01*
X43634Y62179D01*
X43685Y62157D01*
X43729Y62132D01*
X43776Y62099D01*
X43816Y62063D01*
X43820Y62059D01*
X43827Y62056D01*
X43835Y62041D01*
X43849Y62027D01*
X43867Y62008D01*
X43885Y61983D01*
X43904Y61957D01*
X43926Y61925D01*
X43962Y61852D01*
X43998Y61768D01*
X44013Y61721D01*
X44020Y61670D01*
X44028Y61615D01*
X44031Y61561D01*
Y61553D01*
Y61531D01*
X44028Y61499D01*
X44024Y61459D01*
X44017Y61408D01*
X44006Y61353D01*
X43991Y61295D01*
X43969Y61237D01*
X43966Y61229D01*
X43958Y61211D01*
X43944Y61178D01*
X43922Y61138D01*
X43896Y61091D01*
X43864Y61036D01*
X43824Y60978D01*
X43776Y60916D01*
X43773Y60913D01*
X43758Y60894D01*
X43736Y60869D01*
X43703Y60833D01*
X43660Y60789D01*
X43605Y60731D01*
X43540Y60669D01*
X43460Y60592D01*
X43456Y60589D01*
X43449Y60585D01*
X43438Y60574D01*
X43423Y60560D01*
X43383Y60523D01*
X43336Y60479D01*
X43289Y60432D01*
X43241Y60385D01*
X43198Y60345D01*
X43183Y60327D01*
X43168Y60312D01*
X43165Y60308D01*
X43158Y60301D01*
X43147Y60287D01*
X43132Y60268D01*
X43099Y60228D01*
X43070Y60181D01*
X44031D01*
Y59733D01*
X42338D01*
Y59737D01*
Y59744D01*
X42342Y59759D01*
X42346Y59777D01*
X42349Y59799D01*
X42353Y59824D01*
X42368Y59890D01*
X42390Y59963D01*
X42419Y60043D01*
X42455Y60130D01*
X42502Y60214D01*
Y60217D01*
X42510Y60225D01*
X42517Y60239D01*
X42531Y60254D01*
X42546Y60279D01*
X42568Y60305D01*
X42593Y60338D01*
X42622Y60374D01*
X42655Y60418D01*
X42695Y60461D01*
X42739Y60512D01*
X42790Y60567D01*
X42845Y60622D01*
X42906Y60683D01*
X42972Y60749D01*
X43045Y60818D01*
X43048Y60822D01*
X43059Y60833D01*
X43074Y60847D01*
X43096Y60869D01*
X43125Y60891D01*
X43154Y60920D01*
X43219Y60985D01*
X43285Y61055D01*
X43350Y61124D01*
X43380Y61153D01*
X43409Y61186D01*
X43431Y61211D01*
X43445Y61233D01*
X43449Y61240D01*
X43460Y61259D01*
X43478Y61288D01*
X43496Y61328D01*
X43514Y61371D01*
X43532Y61422D01*
X43543Y61473D01*
X43547Y61528D01*
Y61531D01*
Y61535D01*
Y61553D01*
X43543Y61586D01*
X43536Y61623D01*
X43525Y61663D01*
X43511Y61703D01*
X43489Y61743D01*
X43460Y61779D01*
X43456Y61783D01*
X43445Y61794D01*
X43423Y61808D01*
X43398Y61823D01*
X43361Y61837D01*
X43321Y61852D01*
X43274Y61863D01*
X43219Y61866D01*
X43194D01*
X43165Y61863D01*
X43132Y61855D01*
X43092Y61844D01*
X43052Y61826D01*
X43012Y61804D01*
X42976Y61775D01*
X42972Y61772D01*
X42961Y61757D01*
X42946Y61735D01*
X42932Y61703D01*
X42914Y61663D01*
X42899Y61608D01*
X42884Y61546D01*
X42877Y61473D01*
X42397Y61520D01*
Y61524D01*
X42400Y61539D01*
Y61557D01*
X42408Y61586D01*
X42411Y61619D01*
X42422Y61655D01*
X42433Y61695D01*
X42444Y61743D01*
X42480Y61834D01*
X42524Y61928D01*
X42553Y61976D01*
X42586Y62019D01*
X42622Y62056D01*
X42663Y62092D01*
X42666Y62096D01*
X42673Y62099D01*
X42684Y62107D01*
X42702Y62121D01*
X42724Y62132D01*
X42753Y62147D01*
X42783Y62165D01*
X42819Y62179D01*
X42859Y62198D01*
X42903Y62212D01*
X42997Y62241D01*
X43110Y62260D01*
X43168Y62263D01*
X43230Y62267D01*
X43267D01*
X43292Y62263D01*
D02*
G37*
G36*
X41137Y62248D02*
X41177D01*
X41217Y62245D01*
X41265D01*
X41359Y62234D01*
X41458Y62223D01*
X41549Y62205D01*
X41589Y62194D01*
X41625Y62183D01*
X41629D01*
X41632Y62179D01*
X41654Y62168D01*
X41687Y62150D01*
X41731Y62128D01*
X41778Y62092D01*
X41825Y62052D01*
X41873Y62001D01*
X41916Y61939D01*
Y61936D01*
X41920Y61932D01*
X41927Y61921D01*
X41934Y61910D01*
X41953Y61874D01*
X41974Y61826D01*
X41993Y61768D01*
X42011Y61703D01*
X42026Y61626D01*
X42029Y61546D01*
Y61542D01*
Y61535D01*
Y61517D01*
X42026Y61499D01*
Y61473D01*
X42022Y61448D01*
X42007Y61382D01*
X41989Y61306D01*
X41960Y61229D01*
X41916Y61149D01*
X41891Y61113D01*
X41862Y61076D01*
X41858Y61073D01*
X41854Y61069D01*
X41844Y61058D01*
X41829Y61047D01*
X41814Y61033D01*
X41793Y61015D01*
X41767Y60996D01*
X41738Y60978D01*
X41705Y60956D01*
X41665Y60938D01*
X41625Y60920D01*
X41581Y60902D01*
X41530Y60883D01*
X41480Y60869D01*
X41425Y60854D01*
X41363Y60843D01*
X41367D01*
X41370Y60840D01*
X41392Y60825D01*
X41421Y60807D01*
X41458Y60782D01*
X41501Y60749D01*
X41545Y60716D01*
X41592Y60676D01*
X41632Y60632D01*
X41636Y60629D01*
X41654Y60611D01*
X41676Y60581D01*
X41709Y60538D01*
X41752Y60483D01*
X41774Y60447D01*
X41800Y60410D01*
X41829Y60370D01*
X41858Y60327D01*
X41891Y60276D01*
X41924Y60225D01*
X42233Y59733D01*
X41621D01*
X41257Y60279D01*
X41254Y60283D01*
X41250Y60294D01*
X41239Y60308D01*
X41225Y60327D01*
X41210Y60348D01*
X41192Y60378D01*
X41152Y60436D01*
X41105Y60501D01*
X41061Y60560D01*
X41021Y60614D01*
X41003Y60632D01*
X40988Y60651D01*
X40984Y60654D01*
X40977Y60662D01*
X40963Y60676D01*
X40944Y60694D01*
X40919Y60709D01*
X40893Y60727D01*
X40864Y60742D01*
X40835Y60756D01*
X40832D01*
X40821Y60760D01*
X40802Y60767D01*
X40773Y60771D01*
X40737Y60778D01*
X40693Y60782D01*
X40642Y60785D01*
X40479D01*
Y59733D01*
X39969D01*
Y62252D01*
X41105D01*
X41137Y62248D01*
D02*
G37*
G36*
X19252Y63771D02*
X19249Y63705D01*
X19245Y63632D01*
X19241Y63559D01*
X19234Y63490D01*
X19227Y63428D01*
Y63421D01*
X19223Y63403D01*
X19216Y63377D01*
X19205Y63341D01*
X19190Y63301D01*
X19172Y63257D01*
X19150Y63210D01*
X19121Y63166D01*
X19117Y63163D01*
X19107Y63148D01*
X19088Y63126D01*
X19067Y63097D01*
X19034Y63068D01*
X18997Y63035D01*
X18957Y63003D01*
X18910Y62973D01*
X18903Y62970D01*
X18888Y62963D01*
X18859Y62948D01*
X18823Y62933D01*
X18779Y62919D01*
X18732Y62904D01*
X18673Y62897D01*
X18615Y62893D01*
X18611D01*
X18608D01*
X18586D01*
X18553Y62897D01*
X18510Y62904D01*
X18459Y62919D01*
X18404Y62933D01*
X18349Y62959D01*
X18291Y62992D01*
X18284Y62995D01*
X18266Y63010D01*
X18240Y63032D01*
X18207Y63057D01*
X18175Y63094D01*
X18135Y63137D01*
X18102Y63188D01*
X18069Y63246D01*
Y63243D01*
X18066Y63235D01*
X18062Y63225D01*
X18058Y63210D01*
X18040Y63166D01*
X18015Y63115D01*
X17985Y63061D01*
X17945Y62999D01*
X17898Y62944D01*
X17840Y62893D01*
X17833Y62890D01*
X17811Y62875D01*
X17778Y62853D01*
X17734Y62831D01*
X17676Y62810D01*
X17614Y62788D01*
X17541Y62773D01*
X17461Y62770D01*
X17458D01*
X17454D01*
X17432D01*
X17399Y62773D01*
X17356Y62780D01*
X17305Y62788D01*
X17246Y62802D01*
X17188Y62824D01*
X17126Y62850D01*
X17119Y62853D01*
X17101Y62864D01*
X17072Y62882D01*
X17035Y62908D01*
X16992Y62937D01*
X16952Y62977D01*
X16908Y63017D01*
X16868Y63068D01*
X16864Y63075D01*
X16853Y63094D01*
X16835Y63123D01*
X16817Y63163D01*
X16795Y63214D01*
X16777Y63272D01*
X16759Y63337D01*
X16748Y63410D01*
Y63425D01*
X16744Y63439D01*
Y63476D01*
X16741Y63501D01*
Y63570D01*
X16737Y63614D01*
Y63723D01*
X16733Y63785D01*
Y64877D01*
X19252D01*
Y63771D01*
D02*
G37*
G36*
Y60516D02*
X18826D01*
Y61259D01*
X16733D01*
Y61769D01*
X18826D01*
Y62515D01*
X19252D01*
Y60516D01*
D02*
G37*
G36*
Y59694D02*
X17556Y58653D01*
X19252D01*
Y58183D01*
X16733D01*
Y58693D01*
X18393Y59716D01*
X16733D01*
Y60185D01*
X19252D01*
Y59694D01*
D02*
G37*
G36*
X16759Y57812D02*
X16777Y57808D01*
X16799Y57805D01*
X16824Y57801D01*
X16890Y57786D01*
X16963Y57765D01*
X17043Y57735D01*
X17130Y57699D01*
X17214Y57652D01*
X17217D01*
X17225Y57644D01*
X17239Y57637D01*
X17254Y57623D01*
X17279Y57608D01*
X17305Y57586D01*
X17337Y57561D01*
X17374Y57532D01*
X17418Y57499D01*
X17461Y57459D01*
X17512Y57415D01*
X17567Y57364D01*
X17621Y57310D01*
X17683Y57248D01*
X17749Y57182D01*
X17818Y57109D01*
X17822Y57106D01*
X17833Y57095D01*
X17847Y57080D01*
X17869Y57058D01*
X17891Y57029D01*
X17920Y57000D01*
X17985Y56935D01*
X18055Y56869D01*
X18124Y56804D01*
X18153Y56774D01*
X18186Y56745D01*
X18211Y56723D01*
X18233Y56709D01*
X18240Y56705D01*
X18258Y56694D01*
X18288Y56676D01*
X18328Y56658D01*
X18371Y56640D01*
X18422Y56622D01*
X18473Y56611D01*
X18528Y56607D01*
X18531D01*
X18535D01*
X18553D01*
X18586Y56611D01*
X18622Y56618D01*
X18663Y56629D01*
X18702Y56643D01*
X18743Y56665D01*
X18779Y56694D01*
X18783Y56698D01*
X18793Y56709D01*
X18808Y56731D01*
X18823Y56756D01*
X18837Y56793D01*
X18852Y56833D01*
X18863Y56880D01*
X18866Y56935D01*
Y56960D01*
X18863Y56989D01*
X18855Y57022D01*
X18845Y57062D01*
X18826Y57102D01*
X18804Y57142D01*
X18775Y57178D01*
X18772Y57182D01*
X18757Y57193D01*
X18735Y57208D01*
X18702Y57222D01*
X18663Y57240D01*
X18608Y57255D01*
X18546Y57270D01*
X18473Y57277D01*
X18520Y57757D01*
X18524D01*
X18539Y57754D01*
X18557D01*
X18586Y57746D01*
X18619Y57743D01*
X18655Y57732D01*
X18695Y57721D01*
X18743Y57710D01*
X18834Y57674D01*
X18928Y57630D01*
X18975Y57601D01*
X19019Y57568D01*
X19056Y57532D01*
X19092Y57491D01*
X19096Y57488D01*
X19099Y57481D01*
X19107Y57470D01*
X19121Y57451D01*
X19132Y57430D01*
X19147Y57401D01*
X19165Y57371D01*
X19179Y57335D01*
X19198Y57295D01*
X19212Y57251D01*
X19241Y57157D01*
X19259Y57044D01*
X19263Y56986D01*
X19267Y56924D01*
Y56887D01*
X19263Y56862D01*
X19259Y56829D01*
X19256Y56793D01*
X19249Y56753D01*
X19241Y56709D01*
X19216Y56614D01*
X19179Y56520D01*
X19158Y56469D01*
X19132Y56425D01*
X19099Y56378D01*
X19063Y56338D01*
X19059Y56334D01*
X19056Y56327D01*
X19041Y56319D01*
X19026Y56305D01*
X19008Y56287D01*
X18983Y56269D01*
X18957Y56250D01*
X18925Y56229D01*
X18852Y56192D01*
X18768Y56156D01*
X18721Y56141D01*
X18670Y56134D01*
X18615Y56126D01*
X18561Y56123D01*
X18553D01*
X18531D01*
X18499Y56126D01*
X18459Y56130D01*
X18408Y56138D01*
X18353Y56148D01*
X18295Y56163D01*
X18237Y56185D01*
X18229Y56188D01*
X18211Y56196D01*
X18178Y56210D01*
X18138Y56232D01*
X18091Y56258D01*
X18036Y56290D01*
X17978Y56330D01*
X17916Y56378D01*
X17913Y56381D01*
X17894Y56396D01*
X17869Y56418D01*
X17833Y56450D01*
X17789Y56494D01*
X17731Y56549D01*
X17669Y56614D01*
X17592Y56694D01*
X17589Y56698D01*
X17585Y56705D01*
X17574Y56716D01*
X17560Y56731D01*
X17523Y56771D01*
X17480Y56818D01*
X17432Y56866D01*
X17385Y56913D01*
X17345Y56956D01*
X17327Y56971D01*
X17312Y56986D01*
X17308Y56989D01*
X17301Y56997D01*
X17287Y57007D01*
X17268Y57022D01*
X17228Y57055D01*
X17181Y57084D01*
Y56123D01*
X16733D01*
Y57815D01*
X16737D01*
X16744D01*
X16759Y57812D01*
D02*
G37*
G36*
X19252Y10271D02*
X19249Y10205D01*
X19245Y10132D01*
X19241Y10059D01*
X19234Y9990D01*
X19227Y9928D01*
Y9921D01*
X19223Y9903D01*
X19216Y9877D01*
X19205Y9841D01*
X19190Y9801D01*
X19172Y9757D01*
X19150Y9710D01*
X19121Y9666D01*
X19117Y9663D01*
X19107Y9648D01*
X19088Y9626D01*
X19067Y9597D01*
X19034Y9568D01*
X18997Y9535D01*
X18957Y9503D01*
X18910Y9473D01*
X18903Y9470D01*
X18888Y9463D01*
X18859Y9448D01*
X18823Y9433D01*
X18779Y9419D01*
X18732Y9404D01*
X18673Y9397D01*
X18615Y9393D01*
X18611D01*
X18608D01*
X18586D01*
X18553Y9397D01*
X18510Y9404D01*
X18459Y9419D01*
X18404Y9433D01*
X18349Y9459D01*
X18291Y9492D01*
X18284Y9495D01*
X18266Y9510D01*
X18240Y9532D01*
X18207Y9557D01*
X18175Y9594D01*
X18135Y9637D01*
X18102Y9688D01*
X18069Y9746D01*
Y9743D01*
X18066Y9736D01*
X18062Y9725D01*
X18058Y9710D01*
X18040Y9666D01*
X18015Y9615D01*
X17985Y9561D01*
X17945Y9499D01*
X17898Y9444D01*
X17840Y9393D01*
X17833Y9390D01*
X17811Y9375D01*
X17778Y9353D01*
X17734Y9331D01*
X17676Y9310D01*
X17614Y9288D01*
X17541Y9273D01*
X17461Y9269D01*
X17458D01*
X17454D01*
X17432D01*
X17399Y9273D01*
X17356Y9280D01*
X17305Y9288D01*
X17246Y9302D01*
X17188Y9324D01*
X17126Y9350D01*
X17119Y9353D01*
X17101Y9364D01*
X17072Y9382D01*
X17035Y9408D01*
X16992Y9437D01*
X16952Y9477D01*
X16908Y9517D01*
X16868Y9568D01*
X16864Y9575D01*
X16853Y9594D01*
X16835Y9623D01*
X16817Y9663D01*
X16795Y9714D01*
X16777Y9772D01*
X16759Y9837D01*
X16748Y9910D01*
Y9925D01*
X16744Y9939D01*
Y9976D01*
X16741Y10001D01*
Y10070D01*
X16737Y10114D01*
Y10223D01*
X16733Y10285D01*
Y11377D01*
X19252D01*
Y10271D01*
D02*
G37*
G36*
Y7016D02*
X18826D01*
Y7759D01*
X16733D01*
Y8269D01*
X18826D01*
Y9015D01*
X19252D01*
Y7016D01*
D02*
G37*
G36*
Y6194D02*
X17556Y5153D01*
X19252D01*
Y4683D01*
X16733D01*
Y5193D01*
X18393Y6216D01*
X16733D01*
Y6685D01*
X19252D01*
Y6194D01*
D02*
G37*
G36*
X16759Y4312D02*
X16777Y4308D01*
X16799Y4305D01*
X16824Y4301D01*
X16890Y4286D01*
X16963Y4264D01*
X17043Y4235D01*
X17130Y4199D01*
X17214Y4152D01*
X17217D01*
X17225Y4144D01*
X17239Y4137D01*
X17254Y4123D01*
X17279Y4108D01*
X17305Y4086D01*
X17337Y4061D01*
X17374Y4032D01*
X17418Y3999D01*
X17461Y3959D01*
X17512Y3915D01*
X17567Y3864D01*
X17621Y3810D01*
X17683Y3748D01*
X17749Y3682D01*
X17818Y3609D01*
X17822Y3606D01*
X17833Y3595D01*
X17847Y3580D01*
X17869Y3558D01*
X17891Y3529D01*
X17920Y3500D01*
X17985Y3435D01*
X18055Y3369D01*
X18124Y3304D01*
X18153Y3274D01*
X18186Y3245D01*
X18211Y3224D01*
X18233Y3209D01*
X18240Y3205D01*
X18258Y3194D01*
X18288Y3176D01*
X18328Y3158D01*
X18371Y3140D01*
X18422Y3122D01*
X18473Y3111D01*
X18528Y3107D01*
X18531D01*
X18535D01*
X18553D01*
X18586Y3111D01*
X18622Y3118D01*
X18663Y3129D01*
X18702Y3143D01*
X18743Y3165D01*
X18779Y3194D01*
X18783Y3198D01*
X18793Y3209D01*
X18808Y3231D01*
X18823Y3256D01*
X18837Y3293D01*
X18852Y3333D01*
X18863Y3380D01*
X18866Y3435D01*
Y3460D01*
X18863Y3489D01*
X18855Y3522D01*
X18845Y3562D01*
X18826Y3602D01*
X18804Y3642D01*
X18775Y3678D01*
X18772Y3682D01*
X18757Y3693D01*
X18735Y3708D01*
X18702Y3722D01*
X18663Y3740D01*
X18608Y3755D01*
X18546Y3770D01*
X18473Y3777D01*
X18520Y4257D01*
X18524D01*
X18539Y4254D01*
X18557D01*
X18586Y4246D01*
X18619Y4243D01*
X18655Y4232D01*
X18695Y4221D01*
X18743Y4210D01*
X18834Y4174D01*
X18928Y4130D01*
X18975Y4101D01*
X19019Y4068D01*
X19056Y4032D01*
X19092Y3992D01*
X19096Y3988D01*
X19099Y3981D01*
X19107Y3970D01*
X19121Y3951D01*
X19132Y3930D01*
X19147Y3901D01*
X19165Y3871D01*
X19179Y3835D01*
X19198Y3795D01*
X19212Y3751D01*
X19241Y3657D01*
X19259Y3544D01*
X19263Y3486D01*
X19267Y3424D01*
Y3387D01*
X19263Y3362D01*
X19259Y3329D01*
X19256Y3293D01*
X19249Y3253D01*
X19241Y3209D01*
X19216Y3114D01*
X19179Y3020D01*
X19158Y2969D01*
X19132Y2925D01*
X19099Y2878D01*
X19063Y2838D01*
X19059Y2834D01*
X19056Y2827D01*
X19041Y2819D01*
X19026Y2805D01*
X19008Y2787D01*
X18983Y2768D01*
X18957Y2750D01*
X18925Y2729D01*
X18852Y2692D01*
X18768Y2656D01*
X18721Y2641D01*
X18670Y2634D01*
X18615Y2627D01*
X18561Y2623D01*
X18553D01*
X18531D01*
X18499Y2627D01*
X18459Y2630D01*
X18408Y2637D01*
X18353Y2648D01*
X18295Y2663D01*
X18237Y2685D01*
X18229Y2688D01*
X18211Y2696D01*
X18178Y2710D01*
X18138Y2732D01*
X18091Y2758D01*
X18036Y2790D01*
X17978Y2830D01*
X17916Y2878D01*
X17913Y2881D01*
X17894Y2896D01*
X17869Y2918D01*
X17833Y2950D01*
X17789Y2994D01*
X17731Y3049D01*
X17669Y3114D01*
X17592Y3194D01*
X17589Y3198D01*
X17585Y3205D01*
X17574Y3216D01*
X17560Y3231D01*
X17523Y3271D01*
X17480Y3318D01*
X17432Y3365D01*
X17385Y3413D01*
X17345Y3457D01*
X17327Y3471D01*
X17312Y3486D01*
X17308Y3489D01*
X17301Y3497D01*
X17287Y3507D01*
X17268Y3522D01*
X17228Y3555D01*
X17181Y3584D01*
Y2623D01*
X16733D01*
Y4315D01*
X16737D01*
X16744D01*
X16759Y4312D01*
D02*
G37*
G36*
X37545Y11954D02*
Y11951D01*
Y11936D01*
Y11911D01*
Y11882D01*
Y11845D01*
X37542Y11802D01*
Y11754D01*
Y11707D01*
X37534Y11601D01*
X37527Y11492D01*
X37523Y11445D01*
X37516Y11398D01*
X37509Y11354D01*
X37502Y11314D01*
Y11310D01*
X37498Y11307D01*
Y11296D01*
X37494Y11285D01*
X37483Y11248D01*
X37469Y11205D01*
X37447Y11154D01*
X37422Y11103D01*
X37389Y11048D01*
X37349Y10997D01*
X37345Y10990D01*
X37331Y10975D01*
X37305Y10954D01*
X37272Y10924D01*
X37229Y10892D01*
X37178Y10859D01*
X37119Y10823D01*
X37054Y10793D01*
X37050D01*
X37047Y10790D01*
X37036Y10786D01*
X37021Y10782D01*
X37003Y10775D01*
X36981Y10768D01*
X36952Y10761D01*
X36923Y10757D01*
X36854Y10742D01*
X36770Y10728D01*
X36675Y10721D01*
X36570Y10717D01*
X36512D01*
X36479Y10721D01*
X36446D01*
X36406Y10724D01*
X36366Y10728D01*
X36279Y10735D01*
X36188Y10750D01*
X36097Y10772D01*
X36057Y10782D01*
X36020Y10797D01*
X36016D01*
X36013Y10801D01*
X35991Y10812D01*
X35955Y10830D01*
X35915Y10855D01*
X35867Y10888D01*
X35816Y10924D01*
X35769Y10968D01*
X35725Y11015D01*
X35722Y11023D01*
X35707Y11037D01*
X35689Y11066D01*
X35667Y11103D01*
X35645Y11143D01*
X35620Y11190D01*
X35602Y11241D01*
X35583Y11296D01*
Y11299D01*
X35580Y11307D01*
Y11317D01*
X35576Y11336D01*
X35572Y11358D01*
X35569Y11387D01*
X35565Y11419D01*
X35561Y11456D01*
X35554Y11500D01*
X35551Y11547D01*
X35547Y11598D01*
X35543Y11656D01*
X35540Y11718D01*
Y11787D01*
X35536Y11860D01*
Y11936D01*
Y13283D01*
X36046D01*
Y11914D01*
Y11911D01*
Y11900D01*
Y11885D01*
Y11863D01*
Y11834D01*
Y11805D01*
X36049Y11740D01*
Y11667D01*
X36053Y11598D01*
X36057Y11565D01*
Y11536D01*
X36060Y11514D01*
X36064Y11492D01*
Y11485D01*
X36071Y11467D01*
X36082Y11438D01*
X36097Y11401D01*
X36115Y11361D01*
X36144Y11321D01*
X36177Y11277D01*
X36217Y11241D01*
X36224Y11237D01*
X36239Y11226D01*
X36268Y11212D01*
X36304Y11197D01*
X36355Y11179D01*
X36413Y11165D01*
X36479Y11154D01*
X36555Y11150D01*
X36592D01*
X36628Y11154D01*
X36675Y11161D01*
X36730Y11172D01*
X36781Y11186D01*
X36836Y11208D01*
X36879Y11237D01*
X36883Y11241D01*
X36897Y11252D01*
X36916Y11270D01*
X36937Y11296D01*
X36959Y11328D01*
X36981Y11365D01*
X36999Y11405D01*
X37010Y11452D01*
Y11460D01*
X37014Y11478D01*
X37018Y11510D01*
X37025Y11554D01*
Y11583D01*
X37028Y11616D01*
Y11652D01*
X37032Y11689D01*
Y11733D01*
X37036Y11780D01*
Y11831D01*
Y11885D01*
Y13283D01*
X37545D01*
Y11954D01*
D02*
G37*
G36*
X43464Y10764D02*
X42954D01*
Y13283D01*
X43464D01*
Y10764D01*
D02*
G37*
G36*
X41466Y13280D02*
X41535Y13276D01*
X41611Y13272D01*
X41691Y13261D01*
X41768Y13250D01*
X41837Y13232D01*
X41840D01*
X41848Y13228D01*
X41859Y13225D01*
X41873Y13221D01*
X41917Y13203D01*
X41968Y13178D01*
X42026Y13145D01*
X42092Y13105D01*
X42154Y13057D01*
X42215Y12999D01*
X42219D01*
X42223Y12992D01*
X42241Y12970D01*
X42270Y12934D01*
X42303Y12886D01*
X42343Y12828D01*
X42383Y12759D01*
X42423Y12679D01*
X42456Y12592D01*
Y12588D01*
X42459Y12581D01*
X42463Y12566D01*
X42470Y12548D01*
X42474Y12526D01*
X42481Y12497D01*
X42488Y12464D01*
X42499Y12428D01*
X42507Y12388D01*
X42514Y12340D01*
X42521Y12293D01*
X42525Y12238D01*
X42536Y12126D01*
X42539Y11998D01*
Y11994D01*
Y11984D01*
Y11969D01*
Y11947D01*
X42536Y11918D01*
Y11889D01*
X42532Y11853D01*
X42529Y11813D01*
X42521Y11729D01*
X42507Y11642D01*
X42485Y11551D01*
X42459Y11463D01*
Y11460D01*
X42456Y11452D01*
X42448Y11438D01*
X42441Y11416D01*
X42434Y11394D01*
X42419Y11368D01*
X42390Y11303D01*
X42354Y11234D01*
X42306Y11157D01*
X42252Y11085D01*
X42190Y11015D01*
X42183Y11008D01*
X42164Y10994D01*
X42135Y10972D01*
X42095Y10943D01*
X42044Y10910D01*
X41986Y10877D01*
X41913Y10844D01*
X41833Y10815D01*
X41830D01*
X41826Y10812D01*
X41815D01*
X41804Y10808D01*
X41764Y10801D01*
X41713Y10790D01*
X41651Y10779D01*
X41575Y10772D01*
X41484Y10768D01*
X41385Y10764D01*
X40432D01*
Y13283D01*
X41436D01*
X41466Y13280D01*
D02*
G37*
G36*
X39052D02*
X39147D01*
X39249Y13272D01*
X39351Y13265D01*
X39394Y13261D01*
X39438Y13258D01*
X39474Y13250D01*
X39504Y13243D01*
X39507D01*
X39515Y13239D01*
X39525Y13236D01*
X39540Y13232D01*
X39580Y13214D01*
X39631Y13192D01*
X39686Y13159D01*
X39748Y13116D01*
X39806Y13061D01*
X39864Y12996D01*
Y12992D01*
X39871Y12988D01*
X39879Y12977D01*
X39886Y12963D01*
X39900Y12941D01*
X39911Y12919D01*
X39926Y12894D01*
X39940Y12865D01*
X39966Y12792D01*
X39991Y12712D01*
X40006Y12613D01*
X40013Y12508D01*
Y12504D01*
Y12497D01*
Y12486D01*
Y12468D01*
X40010Y12450D01*
Y12424D01*
X40002Y12373D01*
X39991Y12311D01*
X39977Y12242D01*
X39955Y12177D01*
X39926Y12115D01*
X39922Y12107D01*
X39911Y12089D01*
X39893Y12060D01*
X39868Y12024D01*
X39838Y11987D01*
X39799Y11944D01*
X39758Y11903D01*
X39711Y11867D01*
X39704Y11863D01*
X39689Y11853D01*
X39664Y11838D01*
X39631Y11820D01*
X39591Y11798D01*
X39547Y11780D01*
X39500Y11762D01*
X39449Y11747D01*
X39442D01*
X39431Y11743D01*
X39416D01*
X39398Y11740D01*
X39373Y11736D01*
X39347Y11733D01*
X39314D01*
X39282Y11729D01*
X39242Y11725D01*
X39198Y11722D01*
X39151Y11718D01*
X39100D01*
X39045Y11714D01*
X38594D01*
Y10764D01*
X38084D01*
Y13283D01*
X39012D01*
X39052Y13280D01*
D02*
G37*
G36*
X59739Y18787D02*
X59772Y18783D01*
X59805Y18779D01*
X59845Y18772D01*
X59885Y18761D01*
X59976Y18736D01*
X60023Y18718D01*
X60074Y18692D01*
X60122Y18667D01*
X60165Y18638D01*
X60213Y18601D01*
X60253Y18561D01*
X60256Y18557D01*
X60260Y18554D01*
X60271Y18543D01*
X60282Y18528D01*
X60311Y18492D01*
X60344Y18441D01*
X60376Y18379D01*
X60402Y18306D01*
X60424Y18226D01*
X60427Y18186D01*
X60431Y18143D01*
Y18139D01*
Y18128D01*
X60427Y18110D01*
X60424Y18088D01*
X60420Y18059D01*
X60413Y18026D01*
X60402Y17990D01*
X60387Y17950D01*
X60365Y17910D01*
X60344Y17866D01*
X60315Y17822D01*
X60278Y17778D01*
X60234Y17735D01*
X60187Y17691D01*
X60132Y17651D01*
X60067Y17611D01*
X60071D01*
X60078Y17607D01*
X60089D01*
X60103Y17600D01*
X60144Y17589D01*
X60191Y17567D01*
X60245Y17538D01*
X60304Y17502D01*
X60362Y17455D01*
X60413Y17400D01*
X60420Y17393D01*
X60435Y17371D01*
X60453Y17338D01*
X60478Y17291D01*
X60504Y17236D01*
X60522Y17167D01*
X60537Y17094D01*
X60544Y17010D01*
Y17007D01*
Y16996D01*
Y16978D01*
X60540Y16956D01*
X60537Y16927D01*
X60529Y16894D01*
X60522Y16854D01*
X60515Y16814D01*
X60486Y16726D01*
X60464Y16679D01*
X60442Y16628D01*
X60413Y16581D01*
X60380Y16534D01*
X60344Y16486D01*
X60300Y16443D01*
X60296Y16439D01*
X60289Y16432D01*
X60274Y16421D01*
X60256Y16406D01*
X60231Y16388D01*
X60205Y16370D01*
X60169Y16348D01*
X60132Y16326D01*
X60093Y16304D01*
X60045Y16282D01*
X59994Y16264D01*
X59943Y16246D01*
X59885Y16231D01*
X59827Y16221D01*
X59761Y16213D01*
X59696Y16210D01*
X59663D01*
X59637Y16213D01*
X59608Y16217D01*
X59576Y16221D01*
X59539Y16228D01*
X59496Y16235D01*
X59408Y16257D01*
X59313Y16293D01*
X59263Y16315D01*
X59219Y16341D01*
X59172Y16373D01*
X59128Y16406D01*
X59124Y16410D01*
X59117Y16417D01*
X59106Y16428D01*
X59092Y16443D01*
X59073Y16461D01*
X59055Y16486D01*
X59033Y16512D01*
X59011Y16544D01*
X58990Y16581D01*
X58964Y16617D01*
X58924Y16705D01*
X58891Y16807D01*
X58877Y16861D01*
X58869Y16919D01*
X59335Y16978D01*
Y16974D01*
Y16970D01*
X59339Y16949D01*
X59346Y16916D01*
X59357Y16876D01*
X59375Y16832D01*
X59394Y16785D01*
X59423Y16741D01*
X59456Y16701D01*
X59459Y16697D01*
X59474Y16687D01*
X59496Y16672D01*
X59521Y16657D01*
X59557Y16639D01*
X59597Y16625D01*
X59641Y16614D01*
X59692Y16610D01*
X59699D01*
X59718Y16614D01*
X59743Y16617D01*
X59780Y16625D01*
X59820Y16639D01*
X59860Y16657D01*
X59903Y16687D01*
X59943Y16723D01*
X59947Y16726D01*
X59961Y16745D01*
X59976Y16770D01*
X59998Y16803D01*
X60016Y16847D01*
X60034Y16901D01*
X60045Y16963D01*
X60049Y17032D01*
Y17036D01*
Y17040D01*
Y17061D01*
X60045Y17094D01*
X60038Y17138D01*
X60023Y17185D01*
X60005Y17233D01*
X59980Y17280D01*
X59947Y17323D01*
X59943Y17327D01*
X59929Y17342D01*
X59907Y17360D01*
X59881Y17378D01*
X59845Y17400D01*
X59805Y17414D01*
X59761Y17429D01*
X59710Y17433D01*
X59674D01*
X59648Y17429D01*
X59616Y17425D01*
X59576Y17418D01*
X59536Y17407D01*
X59488Y17396D01*
X59539Y17786D01*
X59572D01*
X59608Y17789D01*
X59652Y17793D01*
X59699Y17804D01*
X59750Y17819D01*
X59798Y17840D01*
X59841Y17869D01*
X59845Y17873D01*
X59860Y17888D01*
X59874Y17906D01*
X59896Y17935D01*
X59914Y17968D01*
X59932Y18008D01*
X59943Y18055D01*
X59947Y18110D01*
Y18117D01*
Y18132D01*
X59943Y18153D01*
X59936Y18182D01*
X59929Y18215D01*
X59914Y18248D01*
X59896Y18284D01*
X59870Y18314D01*
X59867Y18317D01*
X59856Y18325D01*
X59841Y18339D01*
X59816Y18354D01*
X59787Y18364D01*
X59754Y18379D01*
X59710Y18386D01*
X59667Y18390D01*
X59645D01*
X59623Y18386D01*
X59594Y18379D01*
X59561Y18368D01*
X59525Y18354D01*
X59488Y18332D01*
X59456Y18303D01*
X59452Y18299D01*
X59441Y18288D01*
X59426Y18266D01*
X59408Y18237D01*
X59390Y18204D01*
X59375Y18161D01*
X59361Y18110D01*
X59350Y18052D01*
X58906Y18124D01*
Y18128D01*
X58909Y18135D01*
Y18146D01*
X58913Y18164D01*
X58924Y18204D01*
X58939Y18259D01*
X58960Y18317D01*
X58982Y18379D01*
X59011Y18437D01*
X59044Y18492D01*
X59048Y18499D01*
X59062Y18514D01*
X59084Y18539D01*
X59113Y18572D01*
X59150Y18605D01*
X59193Y18641D01*
X59248Y18677D01*
X59306Y18710D01*
X59310D01*
X59313Y18714D01*
X59335Y18721D01*
X59372Y18736D01*
X59416Y18750D01*
X59470Y18765D01*
X59536Y18779D01*
X59605Y18787D01*
X59681Y18790D01*
X59714D01*
X59739Y18787D01*
D02*
G37*
G36*
X57628Y18772D02*
X57701Y18768D01*
X57774Y18765D01*
X57843Y18758D01*
X57905Y18750D01*
X57912D01*
X57930Y18747D01*
X57956Y18739D01*
X57992Y18729D01*
X58032Y18714D01*
X58076Y18696D01*
X58123Y18674D01*
X58167Y18645D01*
X58171Y18641D01*
X58185Y18630D01*
X58207Y18612D01*
X58236Y18590D01*
X58265Y18557D01*
X58298Y18521D01*
X58331Y18481D01*
X58360Y18434D01*
X58363Y18426D01*
X58371Y18412D01*
X58385Y18383D01*
X58400Y18346D01*
X58415Y18303D01*
X58429Y18255D01*
X58436Y18197D01*
X58440Y18139D01*
Y18135D01*
Y18132D01*
Y18110D01*
X58436Y18077D01*
X58429Y18033D01*
X58415Y17982D01*
X58400Y17928D01*
X58374Y17873D01*
X58342Y17815D01*
X58338Y17808D01*
X58324Y17789D01*
X58302Y17764D01*
X58276Y17731D01*
X58240Y17698D01*
X58196Y17658D01*
X58145Y17626D01*
X58087Y17593D01*
X58091D01*
X58098Y17589D01*
X58109Y17586D01*
X58123Y17582D01*
X58167Y17564D01*
X58218Y17538D01*
X58272Y17509D01*
X58334Y17469D01*
X58389Y17422D01*
X58440Y17364D01*
X58444Y17356D01*
X58458Y17334D01*
X58480Y17302D01*
X58502Y17258D01*
X58524Y17200D01*
X58546Y17138D01*
X58560Y17065D01*
X58564Y16985D01*
Y16981D01*
Y16978D01*
Y16956D01*
X58560Y16923D01*
X58553Y16879D01*
X58546Y16828D01*
X58531Y16770D01*
X58509Y16712D01*
X58484Y16650D01*
X58480Y16643D01*
X58469Y16625D01*
X58451Y16596D01*
X58425Y16559D01*
X58396Y16515D01*
X58356Y16475D01*
X58316Y16432D01*
X58265Y16392D01*
X58258Y16388D01*
X58240Y16377D01*
X58211Y16359D01*
X58171Y16341D01*
X58120Y16319D01*
X58061Y16301D01*
X57996Y16282D01*
X57923Y16272D01*
X57908D01*
X57894Y16268D01*
X57858D01*
X57832Y16264D01*
X57763D01*
X57719Y16261D01*
X57610D01*
X57548Y16257D01*
X56456D01*
Y18776D01*
X57563D01*
X57628Y18772D01*
D02*
G37*
G36*
X60267Y49163D02*
X60580D01*
Y48741D01*
X60267D01*
Y48235D01*
X59801D01*
Y48741D01*
X58767D01*
Y49160D01*
X59860Y50765D01*
X60267D01*
Y49163D01*
D02*
G37*
G36*
X57592Y50750D02*
X57665Y50747D01*
X57737Y50743D01*
X57807Y50736D01*
X57868Y50728D01*
X57876D01*
X57894Y50725D01*
X57919Y50718D01*
X57956Y50707D01*
X57996Y50692D01*
X58039Y50674D01*
X58087Y50652D01*
X58131Y50623D01*
X58134Y50619D01*
X58149Y50608D01*
X58171Y50590D01*
X58200Y50568D01*
X58229Y50536D01*
X58262Y50499D01*
X58294Y50459D01*
X58324Y50412D01*
X58327Y50405D01*
X58334Y50390D01*
X58349Y50361D01*
X58363Y50324D01*
X58378Y50281D01*
X58393Y50234D01*
X58400Y50175D01*
X58403Y50117D01*
Y50113D01*
Y50110D01*
Y50088D01*
X58400Y50055D01*
X58393Y50011D01*
X58378Y49961D01*
X58363Y49906D01*
X58338Y49851D01*
X58305Y49793D01*
X58302Y49786D01*
X58287Y49768D01*
X58265Y49742D01*
X58240Y49709D01*
X58203Y49676D01*
X58160Y49637D01*
X58109Y49604D01*
X58051Y49571D01*
X58054D01*
X58061Y49567D01*
X58072Y49564D01*
X58087Y49560D01*
X58131Y49542D01*
X58182Y49516D01*
X58236Y49487D01*
X58298Y49447D01*
X58353Y49400D01*
X58403Y49342D01*
X58407Y49334D01*
X58422Y49312D01*
X58444Y49280D01*
X58465Y49236D01*
X58487Y49178D01*
X58509Y49116D01*
X58524Y49043D01*
X58527Y48963D01*
Y48959D01*
Y48956D01*
Y48934D01*
X58524Y48901D01*
X58516Y48858D01*
X58509Y48807D01*
X58495Y48748D01*
X58473Y48690D01*
X58447Y48628D01*
X58444Y48621D01*
X58433Y48603D01*
X58415Y48574D01*
X58389Y48537D01*
X58360Y48493D01*
X58320Y48454D01*
X58280Y48410D01*
X58229Y48370D01*
X58222Y48366D01*
X58203Y48355D01*
X58174Y48337D01*
X58134Y48319D01*
X58083Y48297D01*
X58025Y48279D01*
X57960Y48261D01*
X57887Y48250D01*
X57872D01*
X57858Y48246D01*
X57821D01*
X57796Y48242D01*
X57727D01*
X57683Y48239D01*
X57574D01*
X57512Y48235D01*
X56420D01*
Y50754D01*
X57526D01*
X57592Y50750D01*
D02*
G37*
G36*
X88542Y49954D02*
X88567Y49950D01*
X88600Y49943D01*
X88636Y49935D01*
X88673Y49925D01*
X88717Y49914D01*
X88757Y49895D01*
X88804Y49877D01*
X88848Y49852D01*
X88895Y49823D01*
X88939Y49790D01*
X88982Y49750D01*
X89026Y49706D01*
X89030Y49703D01*
X89037Y49695D01*
X89048Y49681D01*
X89062Y49659D01*
X89077Y49637D01*
X89095Y49604D01*
X89117Y49568D01*
X89139Y49528D01*
X89157Y49481D01*
X89179Y49430D01*
X89197Y49371D01*
X89215Y49309D01*
X89226Y49240D01*
X89237Y49171D01*
X89244Y49091D01*
X89248Y49011D01*
Y49007D01*
Y48993D01*
Y48967D01*
X89244Y48935D01*
X89241Y48898D01*
X89237Y48854D01*
X89230Y48803D01*
X89219Y48752D01*
X89193Y48636D01*
X89175Y48578D01*
X89153Y48520D01*
X89128Y48461D01*
X89095Y48407D01*
X89062Y48352D01*
X89022Y48301D01*
X89019Y48298D01*
X89011Y48290D01*
X89000Y48279D01*
X88982Y48261D01*
X88960Y48243D01*
X88935Y48221D01*
X88906Y48199D01*
X88873Y48177D01*
X88833Y48152D01*
X88793Y48130D01*
X88702Y48090D01*
X88651Y48072D01*
X88596Y48061D01*
X88542Y48054D01*
X88484Y48050D01*
X88458D01*
X88429Y48054D01*
X88393Y48057D01*
X88349Y48065D01*
X88302Y48076D01*
X88254Y48090D01*
X88207Y48108D01*
X88203Y48112D01*
X88185Y48119D01*
X88163Y48137D01*
X88130Y48159D01*
X88090Y48185D01*
X88051Y48221D01*
X88003Y48265D01*
X87952Y48316D01*
Y47391D01*
X87468D01*
Y49917D01*
X87919D01*
Y49648D01*
X87923Y49655D01*
X87934Y49670D01*
X87956Y49695D01*
X87981Y49728D01*
X88014Y49764D01*
X88058Y49801D01*
X88101Y49837D01*
X88156Y49870D01*
X88163Y49874D01*
X88182Y49885D01*
X88214Y49899D01*
X88254Y49914D01*
X88302Y49928D01*
X88360Y49943D01*
X88422Y49954D01*
X88487Y49957D01*
X88516D01*
X88542Y49954D01*
D02*
G37*
G36*
X86431D02*
X86471Y49950D01*
X86514Y49943D01*
X86562Y49932D01*
X86613Y49917D01*
X86664Y49899D01*
X86671Y49895D01*
X86686Y49888D01*
X86711Y49877D01*
X86740Y49859D01*
X86773Y49837D01*
X86806Y49812D01*
X86838Y49783D01*
X86867Y49750D01*
X86871Y49746D01*
X86878Y49735D01*
X86889Y49717D01*
X86904Y49692D01*
X86922Y49663D01*
X86937Y49626D01*
X86951Y49590D01*
X86962Y49546D01*
Y49542D01*
X86966Y49524D01*
X86973Y49499D01*
X86977Y49462D01*
X86984Y49419D01*
X86988Y49360D01*
X86991Y49299D01*
Y49222D01*
Y48090D01*
X86507D01*
Y49018D01*
Y49022D01*
Y49033D01*
Y49047D01*
Y49066D01*
Y49091D01*
Y49117D01*
X86503Y49178D01*
X86500Y49240D01*
X86493Y49306D01*
X86485Y49360D01*
X86482Y49382D01*
X86474Y49400D01*
Y49404D01*
X86467Y49415D01*
X86460Y49430D01*
X86449Y49451D01*
X86416Y49495D01*
X86398Y49517D01*
X86372Y49535D01*
X86369Y49539D01*
X86361Y49542D01*
X86347Y49550D01*
X86325Y49561D01*
X86300Y49571D01*
X86274Y49579D01*
X86241Y49582D01*
X86205Y49586D01*
X86183D01*
X86161Y49582D01*
X86132Y49579D01*
X86096Y49568D01*
X86059Y49557D01*
X86019Y49539D01*
X85979Y49517D01*
X85976Y49513D01*
X85965Y49506D01*
X85947Y49488D01*
X85925Y49470D01*
X85903Y49440D01*
X85881Y49411D01*
X85859Y49371D01*
X85845Y49331D01*
Y49328D01*
X85837Y49309D01*
X85834Y49280D01*
X85826Y49237D01*
X85823Y49211D01*
X85819Y49178D01*
X85816Y49146D01*
Y49106D01*
X85812Y49066D01*
X85808Y49018D01*
Y48967D01*
Y48913D01*
Y48090D01*
X85324D01*
Y49917D01*
X85772D01*
Y49648D01*
X85776Y49652D01*
X85783Y49663D01*
X85797Y49677D01*
X85816Y49695D01*
X85837Y49721D01*
X85866Y49746D01*
X85899Y49775D01*
X85936Y49804D01*
X85976Y49830D01*
X86023Y49859D01*
X86070Y49885D01*
X86125Y49910D01*
X86183Y49928D01*
X86241Y49943D01*
X86307Y49954D01*
X86372Y49957D01*
X86398D01*
X86431Y49954D01*
D02*
G37*
G36*
X91286Y48090D02*
X90839D01*
Y48363D01*
X90835Y48356D01*
X90820Y48338D01*
X90799Y48312D01*
X90766Y48279D01*
X90729Y48239D01*
X90682Y48203D01*
X90631Y48163D01*
X90573Y48130D01*
X90566Y48126D01*
X90544Y48119D01*
X90511Y48105D01*
X90467Y48090D01*
X90417Y48076D01*
X90358Y48061D01*
X90296Y48054D01*
X90231Y48050D01*
X90198D01*
X90165Y48054D01*
X90122Y48061D01*
X90067Y48068D01*
X90012Y48083D01*
X89954Y48105D01*
X89900Y48130D01*
X89892Y48134D01*
X89878Y48145D01*
X89849Y48163D01*
X89820Y48188D01*
X89783Y48221D01*
X89750Y48257D01*
X89718Y48305D01*
X89688Y48356D01*
X89685Y48363D01*
X89678Y48381D01*
X89667Y48414D01*
X89656Y48461D01*
X89645Y48520D01*
X89634Y48589D01*
X89627Y48669D01*
X89623Y48760D01*
Y49917D01*
X90107D01*
Y49076D01*
Y49073D01*
Y49058D01*
Y49040D01*
Y49015D01*
Y48985D01*
Y48953D01*
X90111Y48876D01*
X90114Y48792D01*
X90118Y48716D01*
X90122Y48683D01*
X90125Y48651D01*
X90129Y48625D01*
X90132Y48607D01*
Y48603D01*
X90136Y48592D01*
X90144Y48578D01*
X90154Y48556D01*
X90165Y48534D01*
X90184Y48512D01*
X90202Y48490D01*
X90227Y48469D01*
X90231Y48465D01*
X90242Y48461D01*
X90256Y48454D01*
X90278Y48447D01*
X90304Y48436D01*
X90336Y48428D01*
X90369Y48425D01*
X90409Y48421D01*
X90431D01*
X90453Y48425D01*
X90482Y48428D01*
X90518Y48436D01*
X90555Y48450D01*
X90595Y48465D01*
X90631Y48487D01*
X90635Y48490D01*
X90646Y48498D01*
X90664Y48512D01*
X90686Y48534D01*
X90708Y48560D01*
X90729Y48585D01*
X90751Y48618D01*
X90766Y48654D01*
Y48658D01*
X90773Y48676D01*
Y48691D01*
X90777Y48709D01*
X90781Y48727D01*
X90784Y48752D01*
X90788Y48785D01*
X90791Y48818D01*
X90795Y48858D01*
Y48905D01*
X90799Y48956D01*
X90802Y49015D01*
Y49076D01*
Y49146D01*
Y49917D01*
X91286D01*
Y48090D01*
D02*
G37*
G36*
X84847D02*
X84338D01*
Y50609D01*
X84847D01*
Y48090D01*
D02*
G37*
G36*
X92291Y49917D02*
X92622D01*
Y49531D01*
X92291D01*
Y48792D01*
Y48789D01*
Y48782D01*
Y48771D01*
Y48756D01*
Y48720D01*
Y48676D01*
X92295Y48632D01*
Y48589D01*
Y48556D01*
X92298Y48541D01*
Y48534D01*
X92302Y48527D01*
X92309Y48512D01*
X92320Y48494D01*
X92342Y48472D01*
X92349Y48469D01*
X92364Y48461D01*
X92389Y48454D01*
X92422Y48450D01*
X92437D01*
X92451Y48454D01*
X92473Y48458D01*
X92502Y48461D01*
X92535Y48469D01*
X92575Y48480D01*
X92619Y48494D01*
X92662Y48119D01*
X92659D01*
X92655Y48116D01*
X92633Y48108D01*
X92597Y48097D01*
X92550Y48086D01*
X92495Y48072D01*
X92429Y48061D01*
X92357Y48054D01*
X92280Y48050D01*
X92258D01*
X92233Y48054D01*
X92200Y48057D01*
X92164Y48061D01*
X92124Y48068D01*
X92084Y48079D01*
X92044Y48094D01*
X92040Y48097D01*
X92025Y48101D01*
X92007Y48112D01*
X91985Y48123D01*
X91934Y48159D01*
X91909Y48181D01*
X91887Y48206D01*
X91883Y48210D01*
X91880Y48221D01*
X91873Y48236D01*
X91861Y48257D01*
X91851Y48283D01*
X91840Y48316D01*
X91829Y48352D01*
X91821Y48392D01*
Y48396D01*
X91818Y48410D01*
Y48432D01*
X91814Y48469D01*
X91811Y48516D01*
Y48574D01*
X91807Y48607D01*
Y48647D01*
Y48687D01*
Y48734D01*
Y49531D01*
X91585D01*
Y49917D01*
X91807D01*
Y50281D01*
X92291Y50565D01*
Y49917D01*
D02*
G37*
G36*
X42552Y44363D02*
X42592Y44359D01*
X42636Y44352D01*
X42687Y44344D01*
X42741Y44333D01*
X42800Y44319D01*
X42862Y44301D01*
X42923Y44279D01*
X42989Y44250D01*
X43051Y44221D01*
X43109Y44184D01*
X43171Y44140D01*
X43226Y44093D01*
X43229D01*
X43233Y44086D01*
X43244Y44075D01*
X43255Y44064D01*
X43269Y44046D01*
X43284Y44024D01*
X43324Y43973D01*
X43364Y43908D01*
X43408Y43828D01*
X43448Y43736D01*
X43484Y43631D01*
X42982Y43511D01*
Y43514D01*
X42978Y43518D01*
Y43529D01*
X42971Y43544D01*
X42960Y43576D01*
X42942Y43620D01*
X42916Y43671D01*
X42883Y43722D01*
X42840Y43773D01*
X42792Y43817D01*
X42785Y43820D01*
X42767Y43835D01*
X42738Y43853D01*
X42698Y43875D01*
X42647Y43897D01*
X42589Y43915D01*
X42523Y43929D01*
X42450Y43933D01*
X42425D01*
X42403Y43929D01*
X42381Y43926D01*
X42352Y43922D01*
X42290Y43908D01*
X42217Y43882D01*
X42141Y43846D01*
X42101Y43824D01*
X42064Y43798D01*
X42028Y43766D01*
X41995Y43729D01*
Y43726D01*
X41988Y43718D01*
X41981Y43707D01*
X41970Y43689D01*
X41955Y43667D01*
X41941Y43642D01*
X41926Y43609D01*
X41912Y43573D01*
X41893Y43529D01*
X41879Y43482D01*
X41864Y43427D01*
X41850Y43369D01*
X41839Y43303D01*
X41831Y43234D01*
X41828Y43158D01*
X41824Y43074D01*
Y43070D01*
Y43052D01*
Y43027D01*
X41828Y42998D01*
Y42957D01*
X41835Y42910D01*
X41839Y42863D01*
X41846Y42808D01*
X41868Y42695D01*
X41897Y42583D01*
X41915Y42528D01*
X41941Y42477D01*
X41966Y42430D01*
X41995Y42390D01*
X41999Y42386D01*
X42002Y42382D01*
X42013Y42371D01*
X42028Y42357D01*
X42064Y42328D01*
X42115Y42291D01*
X42177Y42251D01*
X42254Y42222D01*
X42341Y42197D01*
X42388Y42193D01*
X42439Y42189D01*
X42458D01*
X42472Y42193D01*
X42512Y42197D01*
X42559Y42204D01*
X42610Y42222D01*
X42669Y42244D01*
X42727Y42273D01*
X42785Y42317D01*
X42792Y42324D01*
X42811Y42342D01*
X42836Y42371D01*
X42865Y42415D01*
X42902Y42473D01*
X42934Y42543D01*
X42967Y42626D01*
X42996Y42725D01*
X43491Y42572D01*
Y42568D01*
X43488Y42553D01*
X43480Y42532D01*
X43469Y42502D01*
X43455Y42470D01*
X43440Y42430D01*
X43422Y42386D01*
X43400Y42339D01*
X43349Y42240D01*
X43284Y42138D01*
X43204Y42040D01*
X43160Y41997D01*
X43113Y41956D01*
X43109Y41953D01*
X43102Y41949D01*
X43087Y41938D01*
X43065Y41924D01*
X43040Y41909D01*
X43007Y41895D01*
X42971Y41876D01*
X42931Y41858D01*
X42883Y41836D01*
X42832Y41818D01*
X42778Y41804D01*
X42720Y41789D01*
X42658Y41774D01*
X42589Y41764D01*
X42519Y41760D01*
X42443Y41756D01*
X42421D01*
X42396Y41760D01*
X42359Y41764D01*
X42319Y41767D01*
X42268Y41774D01*
X42214Y41785D01*
X42152Y41800D01*
X42090Y41818D01*
X42024Y41840D01*
X41955Y41869D01*
X41886Y41902D01*
X41817Y41938D01*
X41748Y41986D01*
X41682Y42037D01*
X41620Y42099D01*
X41617Y42102D01*
X41606Y42113D01*
X41591Y42135D01*
X41569Y42160D01*
X41548Y42197D01*
X41518Y42237D01*
X41489Y42288D01*
X41460Y42346D01*
X41431Y42408D01*
X41402Y42477D01*
X41373Y42557D01*
X41351Y42641D01*
X41329Y42728D01*
X41315Y42827D01*
X41304Y42928D01*
X41300Y43038D01*
Y43041D01*
Y43045D01*
Y43067D01*
X41304Y43099D01*
Y43143D01*
X41311Y43194D01*
X41318Y43256D01*
X41326Y43321D01*
X41340Y43398D01*
X41358Y43474D01*
X41380Y43554D01*
X41406Y43635D01*
X41438Y43718D01*
X41475Y43798D01*
X41518Y43875D01*
X41566Y43948D01*
X41624Y44017D01*
X41628Y44020D01*
X41638Y44031D01*
X41657Y44050D01*
X41682Y44071D01*
X41715Y44097D01*
X41755Y44126D01*
X41799Y44159D01*
X41853Y44192D01*
X41912Y44224D01*
X41973Y44257D01*
X42046Y44286D01*
X42119Y44312D01*
X42203Y44333D01*
X42286Y44352D01*
X42381Y44363D01*
X42476Y44366D01*
X42519D01*
X42552Y44363D01*
D02*
G37*
G36*
X44714Y44330D02*
X44747Y44326D01*
X44783Y44322D01*
X44824Y44315D01*
X44867Y44308D01*
X44962Y44282D01*
X45057Y44246D01*
X45107Y44224D01*
X45151Y44199D01*
X45198Y44166D01*
X45239Y44130D01*
X45242Y44126D01*
X45249Y44122D01*
X45257Y44108D01*
X45271Y44093D01*
X45289Y44075D01*
X45308Y44050D01*
X45326Y44024D01*
X45348Y43991D01*
X45384Y43918D01*
X45421Y43835D01*
X45435Y43788D01*
X45442Y43736D01*
X45450Y43682D01*
X45453Y43627D01*
Y43620D01*
Y43598D01*
X45450Y43565D01*
X45446Y43525D01*
X45439Y43474D01*
X45428Y43420D01*
X45413Y43362D01*
X45391Y43303D01*
X45388Y43296D01*
X45380Y43278D01*
X45366Y43245D01*
X45344Y43205D01*
X45319Y43158D01*
X45286Y43103D01*
X45246Y43045D01*
X45198Y42983D01*
X45195Y42979D01*
X45180Y42961D01*
X45158Y42936D01*
X45126Y42899D01*
X45082Y42856D01*
X45027Y42797D01*
X44962Y42735D01*
X44882Y42659D01*
X44878Y42655D01*
X44871Y42652D01*
X44860Y42641D01*
X44845Y42626D01*
X44805Y42590D01*
X44758Y42546D01*
X44711Y42499D01*
X44663Y42452D01*
X44620Y42412D01*
X44605Y42393D01*
X44591Y42379D01*
X44587Y42375D01*
X44580Y42368D01*
X44569Y42353D01*
X44554Y42335D01*
X44521Y42295D01*
X44492Y42248D01*
X45453D01*
Y41800D01*
X43761D01*
Y41804D01*
Y41811D01*
X43764Y41826D01*
X43768Y41844D01*
X43772Y41866D01*
X43775Y41891D01*
X43790Y41956D01*
X43812Y42029D01*
X43841Y42109D01*
X43877Y42197D01*
X43924Y42281D01*
Y42284D01*
X43932Y42291D01*
X43939Y42306D01*
X43954Y42320D01*
X43968Y42346D01*
X43990Y42371D01*
X44015Y42404D01*
X44045Y42441D01*
X44077Y42484D01*
X44117Y42528D01*
X44161Y42579D01*
X44212Y42634D01*
X44267Y42688D01*
X44328Y42750D01*
X44394Y42816D01*
X44467Y42885D01*
X44470Y42888D01*
X44481Y42899D01*
X44496Y42914D01*
X44518Y42936D01*
X44547Y42957D01*
X44576Y42987D01*
X44642Y43052D01*
X44707Y43121D01*
X44773Y43191D01*
X44802Y43220D01*
X44831Y43252D01*
X44853Y43278D01*
X44867Y43300D01*
X44871Y43307D01*
X44882Y43325D01*
X44900Y43354D01*
X44918Y43394D01*
X44936Y43438D01*
X44955Y43489D01*
X44965Y43540D01*
X44969Y43595D01*
Y43598D01*
Y43602D01*
Y43620D01*
X44965Y43653D01*
X44958Y43689D01*
X44947Y43729D01*
X44933Y43769D01*
X44911Y43809D01*
X44882Y43846D01*
X44878Y43849D01*
X44867Y43860D01*
X44845Y43875D01*
X44820Y43889D01*
X44783Y43904D01*
X44743Y43918D01*
X44696Y43929D01*
X44642Y43933D01*
X44616D01*
X44587Y43929D01*
X44554Y43922D01*
X44514Y43911D01*
X44474Y43893D01*
X44434Y43871D01*
X44398Y43842D01*
X44394Y43838D01*
X44383Y43824D01*
X44368Y43802D01*
X44354Y43769D01*
X44336Y43729D01*
X44321Y43675D01*
X44307Y43613D01*
X44299Y43540D01*
X43819Y43587D01*
Y43591D01*
X43823Y43606D01*
Y43624D01*
X43830Y43653D01*
X43833Y43685D01*
X43844Y43722D01*
X43855Y43762D01*
X43866Y43809D01*
X43903Y43900D01*
X43946Y43995D01*
X43975Y44042D01*
X44008Y44086D01*
X44045Y44122D01*
X44085Y44159D01*
X44088Y44162D01*
X44096Y44166D01*
X44106Y44173D01*
X44125Y44188D01*
X44146Y44199D01*
X44176Y44213D01*
X44205Y44232D01*
X44241Y44246D01*
X44281Y44264D01*
X44325Y44279D01*
X44420Y44308D01*
X44532Y44326D01*
X44591Y44330D01*
X44652Y44333D01*
X44689D01*
X44714Y44330D01*
D02*
G37*
G36*
X72152Y43863D02*
X72192Y43859D01*
X72236Y43852D01*
X72287Y43844D01*
X72341Y43833D01*
X72400Y43819D01*
X72462Y43801D01*
X72523Y43779D01*
X72589Y43750D01*
X72651Y43721D01*
X72709Y43684D01*
X72771Y43641D01*
X72826Y43593D01*
X72829D01*
X72833Y43586D01*
X72844Y43575D01*
X72855Y43564D01*
X72869Y43546D01*
X72884Y43524D01*
X72924Y43473D01*
X72964Y43408D01*
X73008Y43328D01*
X73048Y43237D01*
X73084Y43131D01*
X72582Y43011D01*
Y43014D01*
X72578Y43018D01*
Y43029D01*
X72571Y43044D01*
X72560Y43076D01*
X72542Y43120D01*
X72516Y43171D01*
X72483Y43222D01*
X72440Y43273D01*
X72392Y43317D01*
X72385Y43320D01*
X72367Y43335D01*
X72338Y43353D01*
X72298Y43375D01*
X72247Y43397D01*
X72189Y43415D01*
X72123Y43429D01*
X72050Y43433D01*
X72025D01*
X72003Y43429D01*
X71981Y43426D01*
X71952Y43422D01*
X71890Y43408D01*
X71817Y43382D01*
X71741Y43346D01*
X71701Y43324D01*
X71664Y43298D01*
X71628Y43266D01*
X71595Y43229D01*
Y43226D01*
X71588Y43218D01*
X71581Y43207D01*
X71570Y43189D01*
X71555Y43167D01*
X71541Y43142D01*
X71526Y43109D01*
X71512Y43073D01*
X71493Y43029D01*
X71479Y42982D01*
X71464Y42927D01*
X71450Y42869D01*
X71439Y42803D01*
X71431Y42734D01*
X71428Y42658D01*
X71424Y42574D01*
Y42570D01*
Y42552D01*
Y42527D01*
X71428Y42498D01*
Y42458D01*
X71435Y42410D01*
X71439Y42363D01*
X71446Y42308D01*
X71468Y42195D01*
X71497Y42083D01*
X71515Y42028D01*
X71541Y41977D01*
X71566Y41930D01*
X71595Y41890D01*
X71599Y41886D01*
X71602Y41882D01*
X71613Y41872D01*
X71628Y41857D01*
X71664Y41828D01*
X71715Y41791D01*
X71777Y41751D01*
X71854Y41722D01*
X71941Y41697D01*
X71988Y41693D01*
X72039Y41690D01*
X72057D01*
X72072Y41693D01*
X72112Y41697D01*
X72159Y41704D01*
X72210Y41722D01*
X72269Y41744D01*
X72327Y41773D01*
X72385Y41817D01*
X72392Y41824D01*
X72411Y41842D01*
X72436Y41872D01*
X72465Y41915D01*
X72502Y41973D01*
X72534Y42043D01*
X72567Y42126D01*
X72596Y42225D01*
X73091Y42072D01*
Y42068D01*
X73088Y42053D01*
X73080Y42032D01*
X73069Y42002D01*
X73055Y41970D01*
X73040Y41930D01*
X73022Y41886D01*
X73000Y41839D01*
X72949Y41740D01*
X72884Y41638D01*
X72804Y41540D01*
X72760Y41497D01*
X72713Y41456D01*
X72709Y41453D01*
X72702Y41449D01*
X72687Y41438D01*
X72665Y41424D01*
X72640Y41409D01*
X72607Y41395D01*
X72571Y41376D01*
X72531Y41358D01*
X72483Y41336D01*
X72432Y41318D01*
X72378Y41304D01*
X72320Y41289D01*
X72258Y41274D01*
X72189Y41264D01*
X72119Y41260D01*
X72043Y41256D01*
X72021D01*
X71996Y41260D01*
X71959Y41264D01*
X71919Y41267D01*
X71868Y41274D01*
X71814Y41285D01*
X71752Y41300D01*
X71690Y41318D01*
X71624Y41340D01*
X71555Y41369D01*
X71486Y41402D01*
X71417Y41438D01*
X71348Y41486D01*
X71282Y41537D01*
X71220Y41598D01*
X71217Y41602D01*
X71206Y41613D01*
X71191Y41635D01*
X71169Y41660D01*
X71148Y41697D01*
X71118Y41737D01*
X71089Y41788D01*
X71060Y41846D01*
X71031Y41908D01*
X71002Y41977D01*
X70973Y42057D01*
X70951Y42141D01*
X70929Y42228D01*
X70915Y42327D01*
X70904Y42428D01*
X70900Y42538D01*
Y42541D01*
Y42545D01*
Y42567D01*
X70904Y42599D01*
Y42643D01*
X70911Y42694D01*
X70918Y42756D01*
X70925Y42821D01*
X70940Y42898D01*
X70958Y42974D01*
X70980Y43055D01*
X71006Y43135D01*
X71038Y43218D01*
X71075Y43298D01*
X71118Y43375D01*
X71166Y43448D01*
X71224Y43517D01*
X71228Y43520D01*
X71238Y43531D01*
X71257Y43549D01*
X71282Y43571D01*
X71315Y43597D01*
X71355Y43626D01*
X71399Y43659D01*
X71453Y43692D01*
X71512Y43724D01*
X71573Y43757D01*
X71646Y43786D01*
X71719Y43812D01*
X71803Y43833D01*
X71886Y43852D01*
X71981Y43863D01*
X72076Y43866D01*
X72119D01*
X72152Y43863D01*
D02*
G37*
G36*
X74656Y41300D02*
X74172D01*
Y43124D01*
X74169Y43120D01*
X74161Y43113D01*
X74147Y43102D01*
X74125Y43084D01*
X74100Y43062D01*
X74070Y43040D01*
X74034Y43014D01*
X73994Y42985D01*
X73950Y42956D01*
X73903Y42927D01*
X73852Y42894D01*
X73797Y42865D01*
X73681Y42811D01*
X73550Y42760D01*
Y43196D01*
X73554D01*
X73557Y43200D01*
X73568Y43204D01*
X73583Y43207D01*
X73619Y43226D01*
X73670Y43247D01*
X73732Y43277D01*
X73801Y43317D01*
X73878Y43367D01*
X73958Y43426D01*
X73961Y43429D01*
X73968Y43433D01*
X73979Y43444D01*
X73994Y43459D01*
X74034Y43495D01*
X74078Y43542D01*
X74129Y43600D01*
X74180Y43673D01*
X74227Y43750D01*
X74263Y43833D01*
X74656D01*
Y41300D01*
D02*
G37*
G36*
X73983Y58730D02*
X74016Y58726D01*
X74049Y58723D01*
X74089Y58715D01*
X74129Y58704D01*
X74220Y58679D01*
X74267Y58661D01*
X74318Y58635D01*
X74366Y58610D01*
X74409Y58581D01*
X74457Y58544D01*
X74497Y58504D01*
X74500Y58500D01*
X74504Y58497D01*
X74515Y58486D01*
X74526Y58471D01*
X74555Y58435D01*
X74588Y58384D01*
X74620Y58322D01*
X74646Y58249D01*
X74668Y58169D01*
X74671Y58129D01*
X74675Y58086D01*
Y58082D01*
Y58071D01*
X74671Y58053D01*
X74668Y58031D01*
X74664Y58002D01*
X74657Y57969D01*
X74646Y57933D01*
X74631Y57893D01*
X74609Y57853D01*
X74588Y57809D01*
X74558Y57765D01*
X74522Y57722D01*
X74478Y57678D01*
X74431Y57634D01*
X74376Y57594D01*
X74311Y57554D01*
X74314D01*
X74322Y57551D01*
X74333D01*
X74347Y57543D01*
X74387Y57532D01*
X74435Y57510D01*
X74489Y57481D01*
X74547Y57445D01*
X74606Y57398D01*
X74657Y57343D01*
X74664Y57336D01*
X74678Y57314D01*
X74697Y57281D01*
X74722Y57234D01*
X74748Y57179D01*
X74766Y57110D01*
X74780Y57037D01*
X74788Y56954D01*
Y56950D01*
Y56939D01*
Y56921D01*
X74784Y56899D01*
X74780Y56870D01*
X74773Y56837D01*
X74766Y56797D01*
X74759Y56757D01*
X74730Y56670D01*
X74708Y56622D01*
X74686Y56571D01*
X74657Y56524D01*
X74624Y56477D01*
X74588Y56429D01*
X74544Y56386D01*
X74540Y56382D01*
X74533Y56375D01*
X74518Y56364D01*
X74500Y56349D01*
X74475Y56331D01*
X74449Y56313D01*
X74413Y56291D01*
X74376Y56269D01*
X74336Y56247D01*
X74289Y56226D01*
X74238Y56207D01*
X74187Y56189D01*
X74129Y56174D01*
X74071Y56164D01*
X74005Y56156D01*
X73940Y56153D01*
X73907D01*
X73881Y56156D01*
X73852Y56160D01*
X73820Y56164D01*
X73783Y56171D01*
X73739Y56178D01*
X73652Y56200D01*
X73557Y56236D01*
X73506Y56258D01*
X73463Y56284D01*
X73415Y56317D01*
X73372Y56349D01*
X73368Y56353D01*
X73361Y56360D01*
X73350Y56371D01*
X73335Y56386D01*
X73317Y56404D01*
X73299Y56429D01*
X73277Y56455D01*
X73255Y56488D01*
X73233Y56524D01*
X73208Y56560D01*
X73168Y56648D01*
X73135Y56750D01*
X73121Y56804D01*
X73113Y56862D01*
X73579Y56921D01*
Y56917D01*
Y56914D01*
X73583Y56892D01*
X73590Y56859D01*
X73601Y56819D01*
X73619Y56775D01*
X73637Y56728D01*
X73667Y56684D01*
X73699Y56644D01*
X73703Y56640D01*
X73718Y56630D01*
X73739Y56615D01*
X73765Y56600D01*
X73801Y56582D01*
X73841Y56568D01*
X73885Y56557D01*
X73936Y56553D01*
X73943D01*
X73961Y56557D01*
X73987Y56560D01*
X74023Y56568D01*
X74063Y56582D01*
X74103Y56600D01*
X74147Y56630D01*
X74187Y56666D01*
X74191Y56670D01*
X74205Y56688D01*
X74220Y56713D01*
X74242Y56746D01*
X74260Y56790D01*
X74278Y56844D01*
X74289Y56906D01*
X74293Y56975D01*
Y56979D01*
Y56983D01*
Y57004D01*
X74289Y57037D01*
X74282Y57081D01*
X74267Y57128D01*
X74249Y57175D01*
X74224Y57223D01*
X74191Y57266D01*
X74187Y57270D01*
X74173Y57285D01*
X74151Y57303D01*
X74125Y57321D01*
X74089Y57343D01*
X74049Y57358D01*
X74005Y57372D01*
X73954Y57376D01*
X73918D01*
X73892Y57372D01*
X73860Y57368D01*
X73820Y57361D01*
X73779Y57350D01*
X73732Y57339D01*
X73783Y57729D01*
X73816D01*
X73852Y57732D01*
X73896Y57736D01*
X73943Y57747D01*
X73994Y57762D01*
X74041Y57783D01*
X74085Y57812D01*
X74089Y57816D01*
X74103Y57831D01*
X74118Y57849D01*
X74140Y57878D01*
X74158Y57911D01*
X74176Y57951D01*
X74187Y57998D01*
X74191Y58053D01*
Y58060D01*
Y58075D01*
X74187Y58096D01*
X74180Y58126D01*
X74173Y58158D01*
X74158Y58191D01*
X74140Y58227D01*
X74114Y58257D01*
X74111Y58260D01*
X74100Y58267D01*
X74085Y58282D01*
X74060Y58297D01*
X74031Y58308D01*
X73998Y58322D01*
X73954Y58329D01*
X73910Y58333D01*
X73889D01*
X73867Y58329D01*
X73838Y58322D01*
X73805Y58311D01*
X73769Y58297D01*
X73732Y58275D01*
X73699Y58246D01*
X73696Y58242D01*
X73685Y58231D01*
X73670Y58209D01*
X73652Y58180D01*
X73634Y58147D01*
X73619Y58104D01*
X73605Y58053D01*
X73594Y57995D01*
X73150Y58067D01*
Y58071D01*
X73153Y58078D01*
Y58089D01*
X73157Y58107D01*
X73168Y58147D01*
X73182Y58202D01*
X73204Y58260D01*
X73226Y58322D01*
X73255Y58380D01*
X73288Y58435D01*
X73292Y58442D01*
X73306Y58457D01*
X73328Y58482D01*
X73357Y58515D01*
X73394Y58548D01*
X73437Y58584D01*
X73492Y58621D01*
X73550Y58653D01*
X73554D01*
X73557Y58657D01*
X73579Y58664D01*
X73616Y58679D01*
X73659Y58693D01*
X73714Y58708D01*
X73779Y58723D01*
X73849Y58730D01*
X73925Y58733D01*
X73958D01*
X73983Y58730D01*
D02*
G37*
G36*
X71868Y58715D02*
X71908D01*
X71948Y58712D01*
X71996D01*
X72091Y58701D01*
X72189Y58690D01*
X72280Y58672D01*
X72320Y58661D01*
X72356Y58650D01*
X72360D01*
X72364Y58646D01*
X72385Y58635D01*
X72418Y58617D01*
X72462Y58595D01*
X72509Y58559D01*
X72556Y58519D01*
X72604Y58468D01*
X72647Y58406D01*
Y58402D01*
X72651Y58399D01*
X72658Y58388D01*
X72666Y58377D01*
X72684Y58340D01*
X72706Y58293D01*
X72724Y58235D01*
X72742Y58169D01*
X72757Y58093D01*
X72760Y58013D01*
Y58009D01*
Y58002D01*
Y57984D01*
X72757Y57965D01*
Y57940D01*
X72753Y57914D01*
X72738Y57849D01*
X72720Y57772D01*
X72691Y57696D01*
X72647Y57616D01*
X72622Y57580D01*
X72593Y57543D01*
X72589Y57539D01*
X72585Y57536D01*
X72575Y57525D01*
X72560Y57514D01*
X72545Y57499D01*
X72524Y57481D01*
X72498Y57463D01*
X72469Y57445D01*
X72436Y57423D01*
X72396Y57405D01*
X72356Y57387D01*
X72312Y57368D01*
X72262Y57350D01*
X72211Y57336D01*
X72156Y57321D01*
X72094Y57310D01*
X72098D01*
X72101Y57307D01*
X72123Y57292D01*
X72152Y57274D01*
X72189Y57248D01*
X72232Y57216D01*
X72276Y57183D01*
X72323Y57143D01*
X72364Y57099D01*
X72367Y57095D01*
X72385Y57077D01*
X72407Y57048D01*
X72440Y57004D01*
X72484Y56950D01*
X72505Y56914D01*
X72531Y56877D01*
X72560Y56837D01*
X72589Y56793D01*
X72622Y56742D01*
X72655Y56691D01*
X72964Y56200D01*
X72353D01*
X71989Y56746D01*
X71985Y56750D01*
X71981Y56761D01*
X71970Y56775D01*
X71956Y56793D01*
X71941Y56815D01*
X71923Y56844D01*
X71883Y56902D01*
X71836Y56968D01*
X71792Y57026D01*
X71752Y57081D01*
X71734Y57099D01*
X71719Y57117D01*
X71716Y57121D01*
X71708Y57128D01*
X71694Y57143D01*
X71675Y57161D01*
X71650Y57175D01*
X71625Y57194D01*
X71595Y57208D01*
X71566Y57223D01*
X71563D01*
X71552Y57227D01*
X71534Y57234D01*
X71504Y57237D01*
X71468Y57245D01*
X71424Y57248D01*
X71373Y57252D01*
X71210D01*
Y56200D01*
X70700D01*
Y58719D01*
X71836D01*
X71868Y58715D01*
D02*
G37*
%LPC*%
G36*
X87710Y19140D02*
X87379D01*
Y17473D01*
X87826D01*
X87874Y17477D01*
X87925D01*
X87976Y17484D01*
X88023Y17488D01*
X88063Y17495D01*
X88070D01*
X88085Y17502D01*
X88107Y17510D01*
X88136Y17521D01*
X88169Y17535D01*
X88201Y17553D01*
X88234Y17575D01*
X88267Y17601D01*
X88270Y17604D01*
X88281Y17615D01*
X88296Y17633D01*
X88314Y17659D01*
X88332Y17692D01*
X88358Y17732D01*
X88376Y17783D01*
X88398Y17841D01*
Y17844D01*
X88401Y17848D01*
Y17859D01*
X88405Y17874D01*
X88412Y17888D01*
X88416Y17910D01*
X88427Y17965D01*
X88434Y18030D01*
X88445Y18107D01*
X88449Y18201D01*
X88452Y18303D01*
Y18307D01*
Y18318D01*
Y18332D01*
Y18350D01*
Y18376D01*
X88449Y18405D01*
X88445Y18467D01*
X88438Y18540D01*
X88431Y18616D01*
X88416Y18685D01*
X88398Y18751D01*
Y18755D01*
X88394Y18758D01*
X88387Y18776D01*
X88376Y18805D01*
X88361Y18842D01*
X88340Y18878D01*
X88314Y18918D01*
X88285Y18958D01*
X88252Y18995D01*
X88249Y18998D01*
X88238Y19009D01*
X88216Y19024D01*
X88190Y19042D01*
X88154Y19064D01*
X88114Y19082D01*
X88070Y19100D01*
X88019Y19115D01*
X88016D01*
X87997Y19118D01*
X87968Y19122D01*
X87928Y19129D01*
X87903D01*
X87870Y19133D01*
X87837D01*
X87801Y19137D01*
X87757D01*
X87710Y19140D01*
D02*
G37*
G36*
X38013Y31405D02*
X38010D01*
X37995D01*
X37973Y31401D01*
X37948Y31397D01*
X37915Y31390D01*
X37886Y31379D01*
X37853Y31365D01*
X37820Y31346D01*
X37817Y31343D01*
X37806Y31335D01*
X37791Y31325D01*
X37777Y31306D01*
X37755Y31285D01*
X37737Y31255D01*
X37718Y31223D01*
X37704Y31186D01*
Y31183D01*
X37697Y31164D01*
X37693Y31135D01*
X37689Y31117D01*
X37686Y31092D01*
X37682Y31066D01*
X37678Y31033D01*
X37675Y30997D01*
Y30953D01*
X37671Y30910D01*
X37667Y30859D01*
Y30331D01*
X38341D01*
Y30891D01*
X38337Y30946D01*
Y31004D01*
X38334Y31062D01*
X38330Y31110D01*
Y31132D01*
X38326Y31146D01*
Y31150D01*
X38323Y31164D01*
X38315Y31186D01*
X38308Y31212D01*
X38293Y31241D01*
X38275Y31274D01*
X38254Y31303D01*
X38228Y31332D01*
X38224Y31335D01*
X38213Y31343D01*
X38195Y31354D01*
X38170Y31368D01*
X38141Y31383D01*
X38104Y31394D01*
X38061Y31401D01*
X38013Y31405D01*
D02*
G37*
G36*
X36954Y31310D02*
X36950D01*
X36936D01*
X36914Y31306D01*
X36885Y31303D01*
X36856Y31295D01*
X36827Y31281D01*
X36794Y31266D01*
X36765Y31245D01*
X36761Y31241D01*
X36754Y31234D01*
X36739Y31215D01*
X36725Y31197D01*
X36710Y31168D01*
X36696Y31135D01*
X36685Y31095D01*
X36677Y31052D01*
Y31048D01*
X36674Y31033D01*
Y30993D01*
X36670Y30972D01*
Y30877D01*
X36666Y30837D01*
Y30331D01*
X37249D01*
Y30819D01*
X37245Y30880D01*
Y30993D01*
X37242Y31015D01*
Y31037D01*
X37238Y31052D01*
X37234Y31073D01*
X37223Y31106D01*
X37212Y31139D01*
X37198Y31172D01*
X37180Y31205D01*
X37154Y31234D01*
X37151Y31237D01*
X37140Y31245D01*
X37125Y31259D01*
X37100Y31274D01*
X37071Y31285D01*
X37038Y31299D01*
X36998Y31306D01*
X36954Y31310D01*
D02*
G37*
G36*
X27806Y12235D02*
X27788D01*
X27773Y12231D01*
X27740Y12228D01*
X27697Y12217D01*
X27646Y12198D01*
X27591Y12173D01*
X27537Y12137D01*
X27486Y12089D01*
X27482Y12082D01*
X27467Y12064D01*
X27446Y12027D01*
X27424Y11984D01*
X27398Y11925D01*
X27380Y11853D01*
X27365Y11769D01*
X27358Y11674D01*
Y11671D01*
Y11663D01*
Y11649D01*
X27362Y11631D01*
Y11605D01*
X27365Y11580D01*
X27373Y11521D01*
X27391Y11452D01*
X27413Y11383D01*
X27442Y11314D01*
X27486Y11256D01*
X27493Y11248D01*
X27507Y11234D01*
X27537Y11212D01*
X27577Y11186D01*
X27620Y11157D01*
X27675Y11135D01*
X27737Y11121D01*
X27806Y11114D01*
X27824D01*
X27839Y11117D01*
X27872Y11121D01*
X27915Y11132D01*
X27966Y11150D01*
X28021Y11172D01*
X28072Y11208D01*
X28123Y11256D01*
X28130Y11263D01*
X28144Y11281D01*
X28163Y11317D01*
X28188Y11361D01*
X28214Y11423D01*
X28232Y11492D01*
X28246Y11580D01*
X28254Y11674D01*
Y11678D01*
Y11685D01*
Y11700D01*
X28250Y11718D01*
Y11740D01*
X28246Y11769D01*
X28239Y11827D01*
X28221Y11893D01*
X28199Y11962D01*
X28166Y12031D01*
X28123Y12089D01*
X28115Y12096D01*
X28101Y12111D01*
X28072Y12137D01*
X28035Y12162D01*
X27988Y12188D01*
X27937Y12213D01*
X27875Y12228D01*
X27806Y12235D01*
D02*
G37*
G36*
X24483D02*
X24464D01*
X24450Y12231D01*
X24417Y12228D01*
X24373Y12217D01*
X24322Y12198D01*
X24268Y12173D01*
X24213Y12137D01*
X24162Y12089D01*
X24159Y12082D01*
X24144Y12064D01*
X24122Y12027D01*
X24100Y11984D01*
X24075Y11925D01*
X24057Y11853D01*
X24042Y11769D01*
X24035Y11674D01*
Y11671D01*
Y11663D01*
Y11649D01*
X24038Y11631D01*
Y11605D01*
X24042Y11580D01*
X24049Y11521D01*
X24068Y11452D01*
X24090Y11383D01*
X24119Y11314D01*
X24162Y11256D01*
X24170Y11248D01*
X24184Y11234D01*
X24213Y11212D01*
X24253Y11186D01*
X24297Y11157D01*
X24352Y11135D01*
X24414Y11121D01*
X24483Y11114D01*
X24501D01*
X24515Y11117D01*
X24548Y11121D01*
X24592Y11132D01*
X24643Y11150D01*
X24697Y11172D01*
X24748Y11208D01*
X24799Y11256D01*
X24807Y11263D01*
X24821Y11281D01*
X24839Y11317D01*
X24865Y11361D01*
X24890Y11423D01*
X24908Y11492D01*
X24923Y11580D01*
X24930Y11674D01*
Y11678D01*
Y11685D01*
Y11700D01*
X24927Y11718D01*
Y11740D01*
X24923Y11769D01*
X24916Y11827D01*
X24898Y11893D01*
X24876Y11962D01*
X24843Y12031D01*
X24799Y12089D01*
X24792Y12096D01*
X24778Y12111D01*
X24748Y12137D01*
X24712Y12162D01*
X24665Y12188D01*
X24614Y12213D01*
X24552Y12228D01*
X24483Y12235D01*
D02*
G37*
G36*
X44259Y25326D02*
X43677D01*
Y24686D01*
X44172D01*
X44245Y24689D01*
X44321Y24693D01*
X44398Y24697D01*
X44430Y24700D01*
X44460Y24704D01*
X44489Y24711D01*
X44507Y24715D01*
X44510D01*
X44521Y24722D01*
X44539Y24729D01*
X44558Y24740D01*
X44605Y24773D01*
X44627Y24795D01*
X44649Y24820D01*
X44652Y24824D01*
X44656Y24835D01*
X44667Y24849D01*
X44678Y24871D01*
X44685Y24900D01*
X44696Y24933D01*
X44700Y24970D01*
X44703Y25010D01*
Y25017D01*
Y25032D01*
X44700Y25053D01*
X44696Y25082D01*
X44685Y25115D01*
X44674Y25148D01*
X44656Y25184D01*
X44634Y25214D01*
X44631Y25217D01*
X44623Y25228D01*
X44605Y25239D01*
X44583Y25257D01*
X44558Y25275D01*
X44525Y25290D01*
X44485Y25304D01*
X44441Y25315D01*
X44438D01*
X44427Y25319D01*
X44405D01*
X44372Y25323D01*
X44292D01*
X44259Y25326D01*
D02*
G37*
G36*
X41061Y61826D02*
X40479D01*
Y61186D01*
X40973D01*
X41046Y61189D01*
X41123Y61193D01*
X41199Y61197D01*
X41232Y61200D01*
X41261Y61204D01*
X41290Y61211D01*
X41308Y61215D01*
X41312D01*
X41323Y61222D01*
X41341Y61229D01*
X41359Y61240D01*
X41407Y61273D01*
X41429Y61295D01*
X41450Y61320D01*
X41454Y61324D01*
X41458Y61335D01*
X41469Y61349D01*
X41480Y61371D01*
X41487Y61400D01*
X41498Y61433D01*
X41501Y61470D01*
X41505Y61510D01*
Y61517D01*
Y61531D01*
X41501Y61553D01*
X41498Y61582D01*
X41487Y61615D01*
X41476Y61648D01*
X41458Y61684D01*
X41436Y61713D01*
X41432Y61717D01*
X41425Y61728D01*
X41407Y61739D01*
X41385Y61757D01*
X41359Y61775D01*
X41327Y61790D01*
X41287Y61804D01*
X41243Y61815D01*
X41239D01*
X41228Y61819D01*
X41206D01*
X41174Y61823D01*
X41094D01*
X41061Y61826D01*
D02*
G37*
G36*
X18834Y64368D02*
X18251D01*
Y63880D01*
X18255Y63818D01*
Y63705D01*
X18258Y63683D01*
Y63661D01*
X18262Y63647D01*
X18266Y63625D01*
X18277Y63592D01*
X18288Y63559D01*
X18302Y63527D01*
X18320Y63494D01*
X18346Y63465D01*
X18349Y63461D01*
X18360Y63454D01*
X18375Y63439D01*
X18400Y63425D01*
X18429Y63414D01*
X18462Y63399D01*
X18502Y63392D01*
X18546Y63388D01*
X18550D01*
X18564D01*
X18586Y63392D01*
X18615Y63396D01*
X18644Y63403D01*
X18673Y63418D01*
X18706Y63432D01*
X18735Y63454D01*
X18739Y63458D01*
X18746Y63465D01*
X18761Y63483D01*
X18775Y63501D01*
X18790Y63530D01*
X18804Y63563D01*
X18815Y63603D01*
X18823Y63647D01*
Y63650D01*
X18826Y63665D01*
Y63705D01*
X18830Y63727D01*
Y63822D01*
X18834Y63862D01*
Y64368D01*
D02*
G37*
G36*
X17833D02*
X17159D01*
Y63807D01*
X17163Y63752D01*
Y63694D01*
X17166Y63636D01*
X17170Y63589D01*
Y63567D01*
X17174Y63552D01*
Y63548D01*
X17177Y63534D01*
X17185Y63512D01*
X17192Y63487D01*
X17207Y63458D01*
X17225Y63425D01*
X17246Y63396D01*
X17272Y63367D01*
X17276Y63363D01*
X17287Y63356D01*
X17305Y63345D01*
X17330Y63330D01*
X17359Y63315D01*
X17396Y63305D01*
X17439Y63297D01*
X17487Y63294D01*
X17490D01*
X17505D01*
X17527Y63297D01*
X17552Y63301D01*
X17585Y63308D01*
X17614Y63319D01*
X17647Y63334D01*
X17680Y63352D01*
X17683Y63356D01*
X17694Y63363D01*
X17709Y63374D01*
X17723Y63392D01*
X17745Y63414D01*
X17763Y63443D01*
X17782Y63476D01*
X17796Y63512D01*
Y63516D01*
X17803Y63534D01*
X17807Y63563D01*
X17811Y63581D01*
X17814Y63607D01*
X17818Y63632D01*
X17822Y63665D01*
X17825Y63701D01*
Y63745D01*
X17829Y63789D01*
X17833Y63840D01*
Y64368D01*
D02*
G37*
G36*
X18834Y10868D02*
X18251D01*
Y10380D01*
X18255Y10318D01*
Y10205D01*
X18258Y10183D01*
Y10161D01*
X18262Y10147D01*
X18266Y10125D01*
X18277Y10092D01*
X18288Y10059D01*
X18302Y10027D01*
X18320Y9994D01*
X18346Y9965D01*
X18349Y9961D01*
X18360Y9954D01*
X18375Y9939D01*
X18400Y9925D01*
X18429Y9914D01*
X18462Y9899D01*
X18502Y9892D01*
X18546Y9888D01*
X18550D01*
X18564D01*
X18586Y9892D01*
X18615Y9896D01*
X18644Y9903D01*
X18673Y9917D01*
X18706Y9932D01*
X18735Y9954D01*
X18739Y9957D01*
X18746Y9965D01*
X18761Y9983D01*
X18775Y10001D01*
X18790Y10030D01*
X18804Y10063D01*
X18815Y10103D01*
X18823Y10147D01*
Y10150D01*
X18826Y10165D01*
Y10205D01*
X18830Y10227D01*
Y10322D01*
X18834Y10362D01*
Y10868D01*
D02*
G37*
G36*
X17833D02*
X17159D01*
Y10307D01*
X17163Y10252D01*
Y10194D01*
X17166Y10136D01*
X17170Y10088D01*
Y10067D01*
X17174Y10052D01*
Y10048D01*
X17177Y10034D01*
X17185Y10012D01*
X17192Y9987D01*
X17207Y9957D01*
X17225Y9925D01*
X17246Y9896D01*
X17272Y9866D01*
X17276Y9863D01*
X17287Y9856D01*
X17305Y9845D01*
X17330Y9830D01*
X17359Y9816D01*
X17396Y9805D01*
X17439Y9797D01*
X17487Y9794D01*
X17490D01*
X17505D01*
X17527Y9797D01*
X17552Y9801D01*
X17585Y9808D01*
X17614Y9819D01*
X17647Y9834D01*
X17680Y9852D01*
X17683Y9856D01*
X17694Y9863D01*
X17709Y9874D01*
X17723Y9892D01*
X17745Y9914D01*
X17763Y9943D01*
X17782Y9976D01*
X17796Y10012D01*
Y10016D01*
X17803Y10034D01*
X17807Y10063D01*
X17811Y10081D01*
X17814Y10107D01*
X17818Y10132D01*
X17822Y10165D01*
X17825Y10201D01*
Y10245D01*
X17829Y10289D01*
X17833Y10340D01*
Y10868D01*
D02*
G37*
G36*
X41273Y12857D02*
X40941D01*
Y11190D01*
X41389D01*
X41436Y11194D01*
X41487D01*
X41538Y11201D01*
X41586Y11205D01*
X41626Y11212D01*
X41633D01*
X41648Y11219D01*
X41669Y11226D01*
X41699Y11237D01*
X41731Y11252D01*
X41764Y11270D01*
X41797Y11292D01*
X41830Y11317D01*
X41833Y11321D01*
X41844Y11332D01*
X41859Y11350D01*
X41877Y11376D01*
X41895Y11408D01*
X41921Y11449D01*
X41939Y11500D01*
X41961Y11558D01*
Y11561D01*
X41964Y11565D01*
Y11576D01*
X41968Y11591D01*
X41975Y11605D01*
X41979Y11627D01*
X41990Y11682D01*
X41997Y11747D01*
X42008Y11823D01*
X42012Y11918D01*
X42015Y12020D01*
Y12024D01*
Y12035D01*
Y12049D01*
Y12067D01*
Y12093D01*
X42012Y12122D01*
X42008Y12184D01*
X42001Y12257D01*
X41993Y12333D01*
X41979Y12402D01*
X41961Y12468D01*
Y12471D01*
X41957Y12475D01*
X41950Y12493D01*
X41939Y12522D01*
X41924Y12559D01*
X41902Y12595D01*
X41877Y12635D01*
X41848Y12675D01*
X41815Y12712D01*
X41811Y12715D01*
X41800Y12726D01*
X41779Y12741D01*
X41753Y12759D01*
X41717Y12781D01*
X41677Y12799D01*
X41633Y12817D01*
X41582Y12832D01*
X41578D01*
X41560Y12835D01*
X41531Y12839D01*
X41491Y12846D01*
X41466D01*
X41433Y12850D01*
X41400D01*
X41364Y12854D01*
X41320D01*
X41273Y12857D01*
D02*
G37*
G36*
X38972D02*
X38594D01*
Y12140D01*
X38943D01*
X38969Y12144D01*
X39034D01*
X39100Y12147D01*
X39165Y12155D01*
X39223Y12166D01*
X39249Y12169D01*
X39271Y12177D01*
X39274Y12180D01*
X39289Y12184D01*
X39307Y12195D01*
X39329Y12206D01*
X39354Y12224D01*
X39380Y12246D01*
X39409Y12271D01*
X39431Y12300D01*
X39434Y12304D01*
X39442Y12315D01*
X39449Y12333D01*
X39460Y12359D01*
X39471Y12388D01*
X39482Y12420D01*
X39485Y12457D01*
X39489Y12497D01*
Y12504D01*
Y12519D01*
X39485Y12544D01*
X39478Y12577D01*
X39467Y12613D01*
X39453Y12653D01*
X39434Y12690D01*
X39405Y12726D01*
X39402Y12730D01*
X39391Y12741D01*
X39373Y12755D01*
X39351Y12774D01*
X39322Y12795D01*
X39285Y12814D01*
X39245Y12828D01*
X39202Y12839D01*
X39198D01*
X39183Y12843D01*
X39158Y12846D01*
X39121Y12850D01*
X39074D01*
X39041Y12854D01*
X39009D01*
X38972Y12857D01*
D02*
G37*
G36*
X57472Y18357D02*
X56966D01*
Y17775D01*
X57454D01*
X57515Y17778D01*
X57628D01*
X57650Y17782D01*
X57672D01*
X57687Y17786D01*
X57708Y17789D01*
X57741Y17800D01*
X57774Y17811D01*
X57807Y17826D01*
X57839Y17844D01*
X57868Y17869D01*
X57872Y17873D01*
X57879Y17884D01*
X57894Y17899D01*
X57908Y17924D01*
X57919Y17953D01*
X57934Y17986D01*
X57941Y18026D01*
X57945Y18070D01*
Y18073D01*
Y18088D01*
X57941Y18110D01*
X57938Y18139D01*
X57930Y18168D01*
X57916Y18197D01*
X57901Y18230D01*
X57879Y18259D01*
X57876Y18263D01*
X57868Y18270D01*
X57850Y18284D01*
X57832Y18299D01*
X57803Y18314D01*
X57770Y18328D01*
X57730Y18339D01*
X57687Y18346D01*
X57683D01*
X57668Y18350D01*
X57628D01*
X57606Y18354D01*
X57512D01*
X57472Y18357D01*
D02*
G37*
G36*
X57494Y17356D02*
X56966D01*
Y16683D01*
X57526D01*
X57581Y16687D01*
X57639D01*
X57697Y16690D01*
X57745Y16694D01*
X57766D01*
X57781Y16697D01*
X57785D01*
X57799Y16701D01*
X57821Y16708D01*
X57847Y16716D01*
X57876Y16730D01*
X57908Y16748D01*
X57938Y16770D01*
X57967Y16796D01*
X57970Y16799D01*
X57978Y16810D01*
X57989Y16828D01*
X58003Y16854D01*
X58018Y16883D01*
X58029Y16919D01*
X58036Y16963D01*
X58039Y17010D01*
Y17014D01*
Y17029D01*
X58036Y17051D01*
X58032Y17076D01*
X58025Y17109D01*
X58014Y17138D01*
X57999Y17171D01*
X57981Y17203D01*
X57978Y17207D01*
X57970Y17218D01*
X57960Y17233D01*
X57941Y17247D01*
X57919Y17269D01*
X57890Y17287D01*
X57858Y17305D01*
X57821Y17320D01*
X57818D01*
X57799Y17327D01*
X57770Y17331D01*
X57752Y17334D01*
X57727Y17338D01*
X57701Y17342D01*
X57668Y17345D01*
X57632Y17349D01*
X57588D01*
X57544Y17353D01*
X57494Y17356D01*
D02*
G37*
G36*
X59801Y50030D02*
X59215Y49163D01*
X59801D01*
Y50030D01*
D02*
G37*
G36*
X57435Y50335D02*
X56929D01*
Y49753D01*
X57417D01*
X57479Y49757D01*
X57592D01*
X57614Y49760D01*
X57635D01*
X57650Y49764D01*
X57672Y49768D01*
X57705Y49779D01*
X57737Y49789D01*
X57770Y49804D01*
X57803Y49822D01*
X57832Y49848D01*
X57836Y49851D01*
X57843Y49862D01*
X57858Y49877D01*
X57872Y49902D01*
X57883Y49931D01*
X57898Y49964D01*
X57905Y50004D01*
X57908Y50048D01*
Y50051D01*
Y50066D01*
X57905Y50088D01*
X57901Y50117D01*
X57894Y50146D01*
X57879Y50175D01*
X57865Y50208D01*
X57843Y50237D01*
X57839Y50241D01*
X57832Y50248D01*
X57814Y50263D01*
X57796Y50277D01*
X57766Y50292D01*
X57734Y50306D01*
X57694Y50317D01*
X57650Y50324D01*
X57646D01*
X57632Y50328D01*
X57592D01*
X57570Y50332D01*
X57475D01*
X57435Y50335D01*
D02*
G37*
G36*
X57457Y49334D02*
X56929D01*
Y48661D01*
X57490D01*
X57544Y48665D01*
X57603D01*
X57661Y48668D01*
X57708Y48672D01*
X57730D01*
X57745Y48676D01*
X57748D01*
X57763Y48679D01*
X57785Y48687D01*
X57810Y48694D01*
X57839Y48708D01*
X57872Y48726D01*
X57901Y48748D01*
X57930Y48774D01*
X57934Y48777D01*
X57941Y48788D01*
X57952Y48807D01*
X57967Y48832D01*
X57981Y48861D01*
X57992Y48898D01*
X57999Y48941D01*
X58003Y48989D01*
Y48992D01*
Y49007D01*
X57999Y49029D01*
X57996Y49054D01*
X57989Y49087D01*
X57978Y49116D01*
X57963Y49149D01*
X57945Y49182D01*
X57941Y49185D01*
X57934Y49196D01*
X57923Y49211D01*
X57905Y49225D01*
X57883Y49247D01*
X57854Y49265D01*
X57821Y49283D01*
X57785Y49298D01*
X57781D01*
X57763Y49305D01*
X57734Y49309D01*
X57716Y49312D01*
X57690Y49316D01*
X57665Y49320D01*
X57632Y49323D01*
X57595Y49327D01*
X57552D01*
X57508Y49331D01*
X57457Y49334D01*
D02*
G37*
G36*
X88353Y49575D02*
X88345D01*
X88323Y49571D01*
X88291Y49568D01*
X88251Y49557D01*
X88203Y49542D01*
X88152Y49517D01*
X88105Y49484D01*
X88058Y49437D01*
X88054Y49430D01*
X88039Y49411D01*
X88021Y49379D01*
X88003Y49335D01*
X87981Y49277D01*
X87963Y49207D01*
X87949Y49127D01*
X87945Y49033D01*
Y49029D01*
Y49018D01*
Y49004D01*
X87949Y48982D01*
Y48956D01*
X87952Y48927D01*
X87959Y48862D01*
X87974Y48785D01*
X87996Y48709D01*
X88025Y48640D01*
X88043Y48607D01*
X88065Y48578D01*
X88072Y48570D01*
X88087Y48556D01*
X88112Y48531D01*
X88149Y48505D01*
X88189Y48480D01*
X88240Y48454D01*
X88298Y48439D01*
X88360Y48432D01*
X88367D01*
X88389Y48436D01*
X88418Y48439D01*
X88458Y48450D01*
X88502Y48465D01*
X88549Y48490D01*
X88596Y48523D01*
X88640Y48567D01*
X88644Y48574D01*
X88658Y48592D01*
X88677Y48625D01*
X88698Y48672D01*
X88706Y48702D01*
X88717Y48734D01*
X88727Y48771D01*
X88735Y48811D01*
X88742Y48854D01*
X88749Y48902D01*
X88753Y48953D01*
Y49007D01*
Y49011D01*
Y49022D01*
Y49036D01*
Y49055D01*
X88749Y49080D01*
X88746Y49106D01*
X88738Y49167D01*
X88724Y49237D01*
X88706Y49309D01*
X88677Y49375D01*
X88636Y49433D01*
X88633Y49440D01*
X88615Y49455D01*
X88589Y49477D01*
X88556Y49506D01*
X88516Y49531D01*
X88469Y49553D01*
X88415Y49568D01*
X88353Y49575D01*
D02*
G37*
G36*
X71792Y58293D02*
X71210D01*
Y57652D01*
X71705D01*
X71777Y57656D01*
X71854Y57660D01*
X71930Y57663D01*
X71963Y57667D01*
X71992Y57671D01*
X72021Y57678D01*
X72040Y57682D01*
X72043D01*
X72054Y57689D01*
X72072Y57696D01*
X72091Y57707D01*
X72138Y57740D01*
X72160Y57762D01*
X72181Y57787D01*
X72185Y57791D01*
X72189Y57802D01*
X72200Y57816D01*
X72211Y57838D01*
X72218Y57867D01*
X72229Y57900D01*
X72232Y57936D01*
X72236Y57976D01*
Y57984D01*
Y57998D01*
X72232Y58020D01*
X72229Y58049D01*
X72218Y58082D01*
X72207Y58115D01*
X72189Y58151D01*
X72167Y58180D01*
X72163Y58184D01*
X72156Y58195D01*
X72138Y58206D01*
X72116Y58224D01*
X72091Y58242D01*
X72058Y58257D01*
X72018Y58271D01*
X71974Y58282D01*
X71970D01*
X71959Y58286D01*
X71938D01*
X71905Y58289D01*
X71825D01*
X71792Y58293D01*
D02*
G37*
%LPD*%
D10*
X17500Y20000D02*
X20000Y17500D01*
X17500Y20000D02*
Y47500D01*
X20000Y50000D01*
X32000Y29500D02*
X34500Y32000D01*
Y36000D01*
X32000Y38500D02*
X34500Y36000D01*
D11*
X41100Y19900D02*
Y21100D01*
X37900Y19900D02*
Y21100D01*
X37100Y14946D02*
Y26046D01*
X41900Y14946D02*
Y26046D01*
X37100Y14946D02*
X41900D01*
X37100Y26046D02*
X41900D01*
X31246Y61600D02*
X32446D01*
X31246Y58400D02*
X32446D01*
X26300Y57600D02*
X37400D01*
X26300Y62400D02*
X37400D01*
Y57600D02*
Y62400D01*
X26300Y57600D02*
Y62400D01*
X41600Y28500D02*
X46400D01*
X41600Y39500D02*
X46400D01*
X41600Y28500D02*
Y39500D01*
X46400Y28500D02*
Y39500D01*
X42125Y33300D02*
X45875D01*
X42125Y34700D02*
X45875D01*
X71100Y39000D02*
X75900D01*
X71100Y28000D02*
X75900D01*
Y39000D01*
X71100Y28000D02*
Y39000D01*
X71625Y34200D02*
X75375D01*
X71625Y32800D02*
X75375D01*
X75946Y53100D02*
X77146D01*
X75946Y49900D02*
X77146D01*
X71000Y49100D02*
X82100D01*
X71000Y53900D02*
X82100D01*
Y49100D02*
Y53900D01*
X71000Y49100D02*
Y53900D01*
D12*
X68756Y25177D02*
Y31181D01*
X48854Y23799D02*
X68146D01*
X48854Y11201D02*
Y23799D01*
Y11201D02*
X68146D01*
Y23799D01*
X68756Y56677D02*
Y62681D01*
X48854Y55299D02*
X68146D01*
X48854Y42701D02*
Y55299D01*
Y42701D02*
X68146D01*
Y55299D01*
M02*
