G04*
G04 #@! TF.GenerationSoftware,Altium Limited,Altium Designer,21.0.8 (223)*
G04*
G04 Layer_Color=8388736*
%FSLAX25Y25*%
%MOIN*%
G70*
G04*
G04 #@! TF.SameCoordinates,EB823DBA-932E-4BE8-864B-9D8D28E1B991*
G04*
G04*
G04 #@! TF.FilePolarity,Negative*
G04*
G01*
G75*
%ADD17O,0.12611X0.06706*%
G04:AMPARAMS|DCode=18|XSize=43.43mil|YSize=39.5mil|CornerRadius=7.94mil|HoleSize=0mil|Usage=FLASHONLY|Rotation=0.000|XOffset=0mil|YOffset=0mil|HoleType=Round|Shape=RoundedRectangle|*
%AMROUNDEDRECTD18*
21,1,0.04343,0.02362,0,0,0.0*
21,1,0.02756,0.03950,0,0,0.0*
1,1,0.01587,0.01378,-0.01181*
1,1,0.01587,-0.01378,-0.01181*
1,1,0.01587,-0.01378,0.01181*
1,1,0.01587,0.01378,0.01181*
%
%ADD18ROUNDEDRECTD18*%
G04:AMPARAMS|DCode=19|XSize=43.43mil|YSize=39.5mil|CornerRadius=7.94mil|HoleSize=0mil|Usage=FLASHONLY|Rotation=90.000|XOffset=0mil|YOffset=0mil|HoleType=Round|Shape=RoundedRectangle|*
%AMROUNDEDRECTD19*
21,1,0.04343,0.02362,0,0,90.0*
21,1,0.02756,0.03950,0,0,90.0*
1,1,0.01587,0.01181,0.01378*
1,1,0.01587,0.01181,-0.01378*
1,1,0.01587,-0.01181,-0.01378*
1,1,0.01587,-0.01181,0.01378*
%
%ADD19ROUNDEDRECTD19*%
%ADD20R,0.03556X0.06804*%
%ADD21C,0.08674*%
%ADD22C,0.03300*%
D17*
X39500Y6500D02*
D03*
X26000Y38500D02*
D03*
Y50000D02*
D03*
Y17500D02*
D03*
Y29500D02*
D03*
X9000Y60500D02*
D03*
Y7000D02*
D03*
X85000Y23500D02*
D03*
Y33500D02*
D03*
Y43500D02*
D03*
D18*
X39500Y23846D02*
D03*
Y17154D02*
D03*
X44000Y37346D02*
D03*
Y30654D02*
D03*
X73500Y30154D02*
D03*
Y36846D02*
D03*
D19*
X28500Y60000D02*
D03*
X35193D02*
D03*
X73200Y51500D02*
D03*
X79893D02*
D03*
D20*
X66000Y6823D02*
D03*
X61000D02*
D03*
X56000D02*
D03*
X51000D02*
D03*
Y28177D02*
D03*
X56000D02*
D03*
X61000D02*
D03*
X66000D02*
D03*
Y38323D02*
D03*
X61000D02*
D03*
X56000D02*
D03*
X51000D02*
D03*
Y59677D02*
D03*
X56000D02*
D03*
X61000D02*
D03*
X66000D02*
D03*
D21*
X88500Y10500D02*
D03*
Y55000D02*
D03*
D22*
X53856Y44857D02*
D03*
X73500Y7900D02*
D03*
X35500Y45000D02*
D03*
X32250Y24195D02*
D03*
X21500Y7000D02*
D03*
X58200Y15100D02*
D03*
X39300Y56000D02*
D03*
X45500Y24500D02*
D03*
X66000Y53000D02*
D03*
X38700Y30654D02*
D03*
M02*
