G04*
G04 #@! TF.GenerationSoftware,Altium Limited,Altium Designer,21.0.8 (223)*
G04*
G04 Layer_Physical_Order=1*
G04 Layer_Color=255*
%FSLAX25Y25*%
%MOIN*%
G70*
G04*
G04 #@! TF.SameCoordinates,EB823DBA-932E-4BE8-864B-9D8D28E1B991*
G04*
G04*
G04 #@! TF.FilePolarity,Positive*
G04*
G01*
G75*
%ADD10C,0.01000*%
%ADD13O,0.11811X0.05906*%
G04:AMPARAMS|DCode=14|XSize=35.43mil|YSize=31.5mil|CornerRadius=3.94mil|HoleSize=0mil|Usage=FLASHONLY|Rotation=0.000|XOffset=0mil|YOffset=0mil|HoleType=Round|Shape=RoundedRectangle|*
%AMROUNDEDRECTD14*
21,1,0.03543,0.02362,0,0,0.0*
21,1,0.02756,0.03150,0,0,0.0*
1,1,0.00787,0.01378,-0.01181*
1,1,0.00787,-0.01378,-0.01181*
1,1,0.00787,-0.01378,0.01181*
1,1,0.00787,0.01378,0.01181*
%
%ADD14ROUNDEDRECTD14*%
G04:AMPARAMS|DCode=15|XSize=35.43mil|YSize=31.5mil|CornerRadius=3.94mil|HoleSize=0mil|Usage=FLASHONLY|Rotation=90.000|XOffset=0mil|YOffset=0mil|HoleType=Round|Shape=RoundedRectangle|*
%AMROUNDEDRECTD15*
21,1,0.03543,0.02362,0,0,90.0*
21,1,0.02756,0.03150,0,0,90.0*
1,1,0.00787,0.01181,0.01378*
1,1,0.00787,0.01181,-0.01378*
1,1,0.00787,-0.01181,-0.01378*
1,1,0.00787,-0.01181,0.01378*
%
%ADD15ROUNDEDRECTD15*%
%ADD16R,0.02756X0.06004*%
%ADD23C,0.07874*%
%ADD24C,0.02500*%
G36*
X45575Y64938D02*
X42167Y61529D01*
X37765D01*
X37687Y61922D01*
X37379Y62383D01*
X36918Y62691D01*
X36374Y62799D01*
X34012D01*
X33468Y62691D01*
X33007Y62383D01*
X32699Y61922D01*
X32591Y61378D01*
Y58622D01*
X32699Y58078D01*
X32732Y58029D01*
X32465Y57529D01*
X31229D01*
X30961Y58029D01*
X30994Y58078D01*
X31102Y58622D01*
Y61378D01*
X30994Y61922D01*
X30686Y62383D01*
X30225Y62691D01*
X29681Y62799D01*
X27319D01*
X26775Y62691D01*
X26314Y62383D01*
X26006Y61922D01*
X25928Y61529D01*
X19933D01*
X19881Y61581D01*
X19385Y61913D01*
X18800Y62029D01*
X15598D01*
X15405Y62493D01*
X14772Y63319D01*
X13946Y63953D01*
X12985Y64351D01*
X11953Y64487D01*
X6047D01*
X5015Y64351D01*
X4054Y63953D01*
X3228Y63319D01*
X2595Y62493D01*
X2196Y61532D01*
X2060Y60500D01*
X2196Y59468D01*
X2595Y58507D01*
X3228Y57681D01*
X4054Y57047D01*
X5015Y56649D01*
X6047Y56513D01*
X11953D01*
X12985Y56649D01*
X13946Y57047D01*
X14772Y57681D01*
X15405Y58507D01*
X15598Y58971D01*
X18167D01*
X18219Y58919D01*
X18715Y58587D01*
X19300Y58471D01*
X25928D01*
X26006Y58078D01*
X26314Y57617D01*
X26775Y57309D01*
X27058Y57253D01*
X27087Y57106D01*
X27419Y56610D01*
X29110Y54919D01*
X29606Y54587D01*
X30191Y54471D01*
X37616D01*
X37678Y54378D01*
X38422Y53881D01*
X39300Y53706D01*
X40178Y53881D01*
X40922Y54378D01*
X41420Y55122D01*
X41594Y56000D01*
X41420Y56878D01*
X40922Y57622D01*
X40401Y57971D01*
X40552Y58471D01*
X42800D01*
X43385Y58587D01*
X43881Y58919D01*
X48122Y63159D01*
X48622Y62952D01*
Y55675D01*
X49471D01*
Y54934D01*
X46066Y51529D01*
X32598D01*
X32405Y51993D01*
X31772Y52819D01*
X30946Y53453D01*
X29985Y53851D01*
X28953Y53987D01*
X23047D01*
X22015Y53851D01*
X21054Y53453D01*
X20228Y52819D01*
X19594Y51993D01*
X19196Y51032D01*
X19060Y50000D01*
X19196Y48968D01*
X19594Y48007D01*
X20228Y47181D01*
X21054Y46547D01*
X22015Y46149D01*
X23047Y46013D01*
X28953D01*
X29118Y46035D01*
X29190Y45540D01*
X22116Y44409D01*
X22104Y44405D01*
X22090Y44405D01*
X21513Y44313D01*
X21513D01*
X20355Y44128D01*
X20240Y44085D01*
X19802Y44027D01*
X18487Y43483D01*
X17777Y42938D01*
X17277Y43185D01*
Y53150D01*
X17161Y53735D01*
X16829Y54231D01*
X16333Y54563D01*
X15748Y54679D01*
X1529D01*
Y65400D01*
X45384D01*
X45575Y64938D01*
D02*
G37*
G36*
X92959Y58121D02*
X92459Y57951D01*
X92021Y58521D01*
X90990Y59312D01*
X89789Y59810D01*
X88500Y59980D01*
X87211Y59810D01*
X86010Y59312D01*
X84979Y58521D01*
X84188Y57490D01*
X83690Y56289D01*
X83520Y55000D01*
X83690Y53711D01*
X84188Y52510D01*
X84979Y51479D01*
X86010Y50687D01*
X87211Y50190D01*
X88500Y50020D01*
X89789Y50190D01*
X90990Y50687D01*
X92021Y51479D01*
X92459Y52049D01*
X92959Y51880D01*
Y13620D01*
X92459Y13451D01*
X92021Y14021D01*
X90990Y14812D01*
X89789Y15310D01*
X88500Y15480D01*
X87211Y15310D01*
X86010Y14812D01*
X84979Y14021D01*
X84188Y12990D01*
X83690Y11789D01*
X83520Y10500D01*
X83690Y9211D01*
X84188Y8010D01*
X84979Y6979D01*
X86010Y6188D01*
X86268Y6081D01*
X86168Y5581D01*
X74979D01*
X74827Y6081D01*
X75122Y6278D01*
X75619Y7022D01*
X75794Y7900D01*
X75772Y8009D01*
X86081Y18319D01*
X86413Y18815D01*
X86529Y19400D01*
Y19513D01*
X87953D01*
X88985Y19649D01*
X89946Y20047D01*
X90772Y20681D01*
X91405Y21507D01*
X91804Y22468D01*
X91940Y23500D01*
X91804Y24532D01*
X91405Y25493D01*
X90772Y26319D01*
X89946Y26953D01*
X88985Y27351D01*
X87953Y27487D01*
X82047D01*
X81015Y27351D01*
X80054Y26953D01*
X79380Y26436D01*
X76299Y29517D01*
Y31335D01*
X76191Y31879D01*
X75883Y32340D01*
X75422Y32647D01*
X74878Y32756D01*
X72122D01*
X71761Y32684D01*
X71514Y33145D01*
X72614Y34244D01*
X74878D01*
X75422Y34352D01*
X75883Y34661D01*
X76191Y35122D01*
X76218Y35258D01*
X76761Y35423D01*
X78133Y34051D01*
X78060Y33500D01*
X78196Y32468D01*
X78594Y31507D01*
X79228Y30681D01*
X80054Y30047D01*
X81015Y29649D01*
X82047Y29513D01*
X87953D01*
X88985Y29649D01*
X89946Y30047D01*
X90772Y30681D01*
X91405Y31507D01*
X91804Y32468D01*
X91940Y33500D01*
X91804Y34532D01*
X91405Y35493D01*
X90772Y36319D01*
X89946Y36953D01*
X88985Y37351D01*
X87953Y37487D01*
X82047D01*
X81015Y37351D01*
X80054Y36953D01*
X79773Y36737D01*
X79029Y37480D01*
Y40203D01*
X79529Y40450D01*
X80054Y40047D01*
X81015Y39649D01*
X82047Y39513D01*
X87953D01*
X88985Y39649D01*
X89946Y40047D01*
X90772Y40681D01*
X91405Y41507D01*
X91804Y42468D01*
X91940Y43500D01*
X91804Y44532D01*
X91405Y45493D01*
X90772Y46319D01*
X89946Y46953D01*
X88985Y47351D01*
X87953Y47487D01*
X85029D01*
Y47893D01*
X84913Y48478D01*
X84581Y48974D01*
X82495Y51061D01*
Y52878D01*
X82387Y53422D01*
X82079Y53883D01*
X81618Y54191D01*
X81074Y54299D01*
X78712D01*
X78529Y54263D01*
X78029Y54654D01*
Y56000D01*
X77913Y56585D01*
X77581Y57081D01*
X75581Y59081D01*
X75085Y59413D01*
X74500Y59529D01*
X72000D01*
X71415Y59413D01*
X70919Y59081D01*
X68878Y57041D01*
X68378Y57248D01*
Y63679D01*
X63622D01*
Y63679D01*
X63378D01*
Y63679D01*
X58622D01*
Y63679D01*
X58378D01*
Y63679D01*
X57150D01*
X57081Y63781D01*
X55925Y64938D01*
X56116Y65400D01*
X92959D01*
Y58121D01*
D02*
G37*
G36*
X59471Y51000D02*
X59587Y50415D01*
X59919Y49919D01*
X60846Y48991D01*
X60654Y48529D01*
X56734D01*
X55357Y49906D01*
X54861Y50238D01*
X54275Y50354D01*
X49924D01*
X49765Y50593D01*
X49703Y50840D01*
X52081Y53219D01*
X52413Y53715D01*
X52529Y54300D01*
Y55675D01*
X53378D01*
X53378Y55675D01*
X53622D01*
Y55675D01*
X53878Y55675D01*
X58378D01*
Y55675D01*
X58622D01*
Y55675D01*
X59471D01*
Y51000D01*
D02*
G37*
G36*
X42644Y47971D02*
X42587Y47885D01*
X42471Y47300D01*
Y39918D01*
X42078Y39840D01*
X41617Y39532D01*
X41309Y39071D01*
X41201Y38528D01*
Y36165D01*
X41309Y35622D01*
X41617Y35160D01*
X42078Y34852D01*
X42622Y34744D01*
X45378D01*
X45471Y34763D01*
X45971Y34352D01*
Y33648D01*
X45471Y33237D01*
X45378Y33256D01*
X42622D01*
X42078Y33147D01*
X41617Y32840D01*
X41309Y32379D01*
X41270Y32183D01*
X40384D01*
X40322Y32276D01*
X39578Y32773D01*
X38700Y32948D01*
X37822Y32773D01*
X37078Y32276D01*
X37029Y32203D01*
X36529Y32355D01*
Y36500D01*
X36413Y37085D01*
X36081Y37582D01*
X34081Y39582D01*
X33585Y39913D01*
X33000Y40029D01*
X32598D01*
X32405Y40493D01*
X31772Y41319D01*
X30946Y41953D01*
X30486Y42143D01*
X30547Y42659D01*
X34102Y43228D01*
X34622Y42881D01*
X35500Y42706D01*
X36378Y42881D01*
X37122Y43378D01*
X37620Y44122D01*
X37794Y45000D01*
X37620Y45878D01*
X37122Y46622D01*
X36378Y47120D01*
X35500Y47294D01*
X34622Y47120D01*
X33878Y46622D01*
X33629Y46250D01*
X30218Y45704D01*
X30081Y46189D01*
X30946Y46547D01*
X31772Y47181D01*
X32405Y48007D01*
X32598Y48471D01*
X42377D01*
X42644Y47971D01*
D02*
G37*
G36*
X74898Y48384D02*
X74971Y48309D01*
Y46433D01*
X72419Y43881D01*
X72087Y43385D01*
X71971Y42800D01*
Y39418D01*
X71578Y39340D01*
X71117Y39032D01*
X70809Y38571D01*
X70701Y38028D01*
Y36657D01*
X68840Y34796D01*
X68378Y34987D01*
Y42325D01*
X67529D01*
Y43000D01*
X67413Y43585D01*
X67081Y44082D01*
X66154Y45009D01*
X66346Y45471D01*
X70800D01*
X71385Y45587D01*
X71881Y45919D01*
X74281Y48319D01*
X74330Y48391D01*
X74898Y48384D01*
D02*
G37*
G36*
X33471Y35866D02*
Y28248D01*
Y26641D01*
X32971Y26345D01*
X32250Y26489D01*
X31973Y26943D01*
X32405Y27507D01*
X32804Y28468D01*
X32940Y29500D01*
X32804Y30532D01*
X32405Y31493D01*
X31772Y32319D01*
X30946Y32953D01*
X29985Y33351D01*
X28953Y33487D01*
X23047D01*
X22015Y33351D01*
X21647Y33198D01*
X20851Y34597D01*
X21205Y34984D01*
X22015Y34649D01*
X23047Y34513D01*
X28953D01*
X29985Y34649D01*
X30946Y35047D01*
X31772Y35681D01*
X32283Y36347D01*
X32873Y36465D01*
X33471Y35866D01*
D02*
G37*
G36*
X48419Y28719D02*
X48622Y28583D01*
Y24175D01*
X50557D01*
X50709Y23675D01*
X50419Y23482D01*
X45620Y18683D01*
X42230D01*
X42191Y18879D01*
X41883Y19340D01*
X41422Y19647D01*
X40878Y19756D01*
X38122D01*
X37578Y19647D01*
X37117Y19340D01*
X37029Y19208D01*
X36529Y19360D01*
Y21640D01*
X37029Y21792D01*
X37117Y21660D01*
X37578Y21352D01*
X38122Y21244D01*
X40878D01*
X41422Y21352D01*
X41883Y21660D01*
X42191Y22121D01*
X42299Y22665D01*
Y25027D01*
X42191Y25571D01*
X41883Y26032D01*
X41422Y26340D01*
X40878Y26449D01*
X38962D01*
X36876Y28535D01*
X36882Y28561D01*
X37453Y28781D01*
X37822Y28534D01*
X38700Y28359D01*
X39578Y28534D01*
X40322Y29032D01*
X40384Y29124D01*
X41270D01*
X41309Y28929D01*
X41617Y28468D01*
X42078Y28160D01*
X42622Y28051D01*
X43971D01*
Y26184D01*
X43878Y26122D01*
X43380Y25378D01*
X43206Y24500D01*
X43380Y23622D01*
X43878Y22878D01*
X44622Y22381D01*
X45500Y22206D01*
X46378Y22381D01*
X47122Y22878D01*
X47620Y23622D01*
X47794Y24500D01*
X47620Y25378D01*
X47122Y26122D01*
X47029Y26184D01*
Y28993D01*
X46928Y29502D01*
X47111Y29679D01*
X47341Y29797D01*
X48419Y28719D01*
D02*
G37*
G36*
X19385Y30988D02*
X19196Y30532D01*
X19060Y29500D01*
X19196Y28468D01*
X19594Y27507D01*
X20228Y26681D01*
X21054Y26047D01*
X22015Y25649D01*
X23047Y25513D01*
X28953D01*
X29908Y25639D01*
X30081Y25467D01*
X30219Y25205D01*
X30130Y25073D01*
X29956Y24195D01*
X30130Y23317D01*
X30471Y22808D01*
Y21691D01*
X29986Y21352D01*
X29971Y21353D01*
X28953Y21487D01*
X23047D01*
X22015Y21351D01*
X21054Y20953D01*
X20228Y20319D01*
X19594Y19493D01*
X19196Y18532D01*
X19060Y17500D01*
X19196Y16468D01*
X19594Y15507D01*
X20228Y14681D01*
X21054Y14047D01*
X22015Y13649D01*
X23047Y13513D01*
X28953D01*
X29985Y13649D01*
X30946Y14047D01*
X31772Y14681D01*
X32405Y15507D01*
X32804Y16468D01*
X32940Y17500D01*
X32804Y18532D01*
X32612Y18996D01*
X32971Y19355D01*
X33408Y19218D01*
X33471Y19170D01*
Y15000D01*
X33587Y14415D01*
X33919Y13919D01*
X36419Y11419D01*
X36915Y11087D01*
X37418Y10987D01*
X37369Y10487D01*
X36547D01*
X35515Y10351D01*
X34554Y9953D01*
X33728Y9319D01*
X33094Y8493D01*
X32696Y7532D01*
X32560Y6500D01*
X32696Y5468D01*
X33094Y4507D01*
X33728Y3681D01*
X34554Y3047D01*
X35515Y2649D01*
X36547Y2513D01*
X42453D01*
X43485Y2649D01*
X43628Y2709D01*
X44346Y1991D01*
X44154Y1529D01*
X1529D01*
Y12250D01*
X15748D01*
X16333Y12367D01*
X16829Y12698D01*
X17161Y13194D01*
X17277Y13780D01*
Y33714D01*
X17761Y33842D01*
X19385Y30988D01*
D02*
G37*
G36*
X70773Y31696D02*
X70701Y31335D01*
Y28973D01*
X70809Y28429D01*
X71117Y27968D01*
X71578Y27660D01*
X72122Y27551D01*
X73939D01*
X78071Y23420D01*
X78196Y22468D01*
X78594Y21507D01*
X79228Y20681D01*
X80054Y20047D01*
X81015Y19649D01*
X82047Y19513D01*
X82297D01*
X82488Y19051D01*
X73609Y10172D01*
X73500Y10194D01*
X72622Y10019D01*
X71878Y9522D01*
X71816Y9429D01*
X68378D01*
Y10825D01*
X63878D01*
X63622Y10825D01*
X63122Y10825D01*
X62529D01*
Y16700D01*
X62413Y17285D01*
X62081Y17782D01*
X59681Y20181D01*
X59398Y20371D01*
X59550Y20871D01*
X63900D01*
X64485Y20987D01*
X64981Y21319D01*
X67081Y23419D01*
X67413Y23915D01*
X67465Y24175D01*
X68378D01*
Y30008D01*
X70312Y31942D01*
X70773Y31696D01*
D02*
G37*
G36*
X71878Y6278D02*
X72622Y5781D01*
X73048Y5696D01*
X73500Y5581D01*
X73500Y5135D01*
Y1529D01*
X56846D01*
X56654Y1991D01*
X57081Y2419D01*
X57350Y2821D01*
X58378D01*
Y2821D01*
X58622D01*
Y2821D01*
X63122D01*
X63378Y2821D01*
X63878Y2821D01*
X68378D01*
Y6371D01*
X71816D01*
X71878Y6278D01*
D02*
G37*
G36*
X81249Y4118D02*
X80764D01*
Y4566D01*
X81249D01*
Y4118D01*
D02*
G37*
G36*
X75607Y3911D02*
X75647Y3907D01*
X75690Y3900D01*
X75738Y3889D01*
X75789Y3875D01*
X75840Y3856D01*
X75847Y3853D01*
X75861Y3845D01*
X75887Y3835D01*
X75916Y3816D01*
X75949Y3794D01*
X75981Y3769D01*
X76014Y3740D01*
X76043Y3707D01*
X76047Y3703D01*
X76054Y3693D01*
X76065Y3674D01*
X76080Y3649D01*
X76098Y3620D01*
X76113Y3583D01*
X76127Y3547D01*
X76138Y3503D01*
Y3500D01*
X76142Y3481D01*
X76149Y3456D01*
X76153Y3420D01*
X76160Y3376D01*
X76164Y3318D01*
X76167Y3256D01*
Y3179D01*
Y2047D01*
X75683D01*
Y2976D01*
Y2979D01*
Y2990D01*
Y3005D01*
Y3023D01*
Y3048D01*
Y3074D01*
X75679Y3136D01*
X75676Y3198D01*
X75668Y3263D01*
X75661Y3318D01*
X75657Y3339D01*
X75650Y3358D01*
Y3361D01*
X75643Y3372D01*
X75636Y3387D01*
X75625Y3409D01*
X75592Y3452D01*
X75574Y3474D01*
X75548Y3492D01*
X75545Y3496D01*
X75537Y3500D01*
X75523Y3507D01*
X75501Y3518D01*
X75476Y3529D01*
X75450Y3536D01*
X75417Y3540D01*
X75381Y3543D01*
X75359D01*
X75337Y3540D01*
X75308Y3536D01*
X75272Y3525D01*
X75235Y3514D01*
X75195Y3496D01*
X75155Y3474D01*
X75152Y3471D01*
X75141Y3463D01*
X75122Y3445D01*
X75101Y3427D01*
X75079Y3398D01*
X75057Y3369D01*
X75035Y3329D01*
X75020Y3289D01*
Y3285D01*
X75013Y3267D01*
X75010Y3238D01*
X75002Y3194D01*
X74999Y3168D01*
X74995Y3136D01*
X74991Y3103D01*
Y3063D01*
X74988Y3023D01*
X74984Y2976D01*
Y2925D01*
Y2870D01*
Y2047D01*
X74500D01*
Y3875D01*
X74948D01*
Y3605D01*
X74951Y3609D01*
X74959Y3620D01*
X74973Y3634D01*
X74991Y3653D01*
X75013Y3678D01*
X75042Y3703D01*
X75075Y3733D01*
X75112Y3762D01*
X75152Y3787D01*
X75199Y3816D01*
X75246Y3842D01*
X75301Y3867D01*
X75359Y3886D01*
X75417Y3900D01*
X75483Y3911D01*
X75548Y3915D01*
X75574D01*
X75607Y3911D01*
D02*
G37*
G36*
X77590Y2047D02*
X77154D01*
X76418Y3875D01*
X76924D01*
X77270Y2939D01*
X77368Y2630D01*
X77372Y2633D01*
X77376Y2648D01*
X77383Y2670D01*
X77390Y2692D01*
X77408Y2746D01*
X77416Y2768D01*
X77419Y2786D01*
Y2790D01*
X77423Y2801D01*
X77427Y2815D01*
X77434Y2834D01*
X77448Y2884D01*
X77470Y2939D01*
X77820Y3875D01*
X78315D01*
X77590Y2047D01*
D02*
G37*
G36*
X85358D02*
X84910D01*
Y2320D01*
X84907Y2313D01*
X84892Y2295D01*
X84870Y2269D01*
X84838Y2237D01*
X84801Y2197D01*
X84754Y2160D01*
X84703Y2120D01*
X84645Y2087D01*
X84637Y2084D01*
X84616Y2076D01*
X84583Y2062D01*
X84539Y2047D01*
X84488Y2033D01*
X84430Y2018D01*
X84368Y2011D01*
X84303Y2007D01*
X84270D01*
X84237Y2011D01*
X84193Y2018D01*
X84139Y2025D01*
X84084Y2040D01*
X84026Y2062D01*
X83971Y2087D01*
X83964Y2091D01*
X83949Y2102D01*
X83920Y2120D01*
X83891Y2146D01*
X83855Y2178D01*
X83822Y2215D01*
X83789Y2262D01*
X83760Y2313D01*
X83757Y2320D01*
X83749Y2338D01*
X83738Y2371D01*
X83727Y2419D01*
X83716Y2477D01*
X83706Y2546D01*
X83698Y2626D01*
X83695Y2717D01*
Y3875D01*
X84179D01*
Y3034D01*
Y3030D01*
Y3016D01*
Y2997D01*
Y2972D01*
Y2943D01*
Y2910D01*
X84182Y2834D01*
X84186Y2750D01*
X84190Y2673D01*
X84193Y2641D01*
X84197Y2608D01*
X84201Y2582D01*
X84204Y2564D01*
Y2561D01*
X84208Y2550D01*
X84215Y2535D01*
X84226Y2513D01*
X84237Y2491D01*
X84255Y2470D01*
X84273Y2448D01*
X84299Y2426D01*
X84303Y2422D01*
X84313Y2419D01*
X84328Y2411D01*
X84350Y2404D01*
X84375Y2393D01*
X84408Y2386D01*
X84441Y2382D01*
X84481Y2379D01*
X84503D01*
X84525Y2382D01*
X84554Y2386D01*
X84590Y2393D01*
X84627Y2408D01*
X84667Y2422D01*
X84703Y2444D01*
X84707Y2448D01*
X84718Y2455D01*
X84736Y2470D01*
X84758Y2491D01*
X84779Y2517D01*
X84801Y2542D01*
X84823Y2575D01*
X84838Y2612D01*
Y2615D01*
X84845Y2633D01*
Y2648D01*
X84848Y2666D01*
X84852Y2684D01*
X84856Y2710D01*
X84859Y2743D01*
X84863Y2775D01*
X84867Y2815D01*
Y2863D01*
X84870Y2914D01*
X84874Y2972D01*
Y3034D01*
Y3103D01*
Y3875D01*
X85358D01*
Y2047D01*
D02*
G37*
G36*
X86985D02*
X86501D01*
Y3871D01*
X86497Y3867D01*
X86490Y3860D01*
X86476Y3849D01*
X86454Y3831D01*
X86428Y3809D01*
X86399Y3787D01*
X86363Y3762D01*
X86323Y3733D01*
X86279Y3703D01*
X86232Y3674D01*
X86181Y3642D01*
X86126Y3613D01*
X86010Y3558D01*
X85879Y3507D01*
Y3944D01*
X85882D01*
X85886Y3947D01*
X85897Y3951D01*
X85911Y3955D01*
X85948Y3973D01*
X85999Y3995D01*
X86061Y4024D01*
X86130Y4064D01*
X86206Y4115D01*
X86286Y4173D01*
X86290Y4177D01*
X86297Y4180D01*
X86308Y4191D01*
X86323Y4206D01*
X86363Y4242D01*
X86406Y4290D01*
X86457Y4348D01*
X86508Y4421D01*
X86556Y4497D01*
X86592Y4581D01*
X86985D01*
Y2047D01*
D02*
G37*
G36*
X81249D02*
X80764D01*
Y3875D01*
X81249D01*
Y2047D01*
D02*
G37*
G36*
X79094Y3634D02*
X79097Y3638D01*
X79105Y3645D01*
X79119Y3660D01*
X79134Y3678D01*
X79159Y3700D01*
X79185Y3722D01*
X79217Y3747D01*
X79250Y3776D01*
X79290Y3802D01*
X79334Y3827D01*
X79429Y3871D01*
X79479Y3889D01*
X79534Y3904D01*
X79592Y3911D01*
X79651Y3915D01*
X79680D01*
X79712Y3911D01*
X79752Y3907D01*
X79800Y3900D01*
X79847Y3886D01*
X79902Y3871D01*
X79953Y3849D01*
X79960Y3845D01*
X79975Y3838D01*
X80000Y3824D01*
X80029Y3805D01*
X80062Y3784D01*
X80095Y3758D01*
X80127Y3725D01*
X80157Y3693D01*
X80160Y3689D01*
X80168Y3674D01*
X80178Y3656D01*
X80193Y3631D01*
X80211Y3598D01*
X80226Y3562D01*
X80240Y3522D01*
X80251Y3478D01*
Y3474D01*
X80255Y3456D01*
X80259Y3427D01*
X80266Y3390D01*
X80269Y3339D01*
X80273Y3278D01*
X80277Y3205D01*
Y3118D01*
Y2047D01*
X79793D01*
Y3008D01*
Y3012D01*
Y3019D01*
Y3034D01*
Y3056D01*
Y3077D01*
Y3103D01*
X79789Y3161D01*
X79785Y3223D01*
X79782Y3285D01*
X79774Y3336D01*
X79767Y3354D01*
X79763Y3372D01*
Y3376D01*
X79756Y3387D01*
X79749Y3398D01*
X79742Y3416D01*
X79709Y3456D01*
X79691Y3478D01*
X79665Y3496D01*
X79662Y3500D01*
X79654Y3503D01*
X79636Y3511D01*
X79618Y3522D01*
X79592Y3529D01*
X79563Y3536D01*
X79527Y3540D01*
X79490Y3543D01*
X79469D01*
X79447Y3540D01*
X79418Y3536D01*
X79385Y3529D01*
X79348Y3518D01*
X79312Y3503D01*
X79276Y3481D01*
X79272Y3478D01*
X79261Y3471D01*
X79243Y3456D01*
X79225Y3438D01*
X79199Y3412D01*
X79177Y3383D01*
X79156Y3347D01*
X79137Y3307D01*
Y3303D01*
X79130Y3285D01*
X79123Y3259D01*
X79115Y3219D01*
X79108Y3172D01*
X79101Y3110D01*
X79097Y3041D01*
X79094Y2961D01*
Y2047D01*
X78610D01*
Y4566D01*
X79094D01*
Y3634D01*
D02*
G37*
G36*
X82508Y3911D02*
X82541Y3907D01*
X82581Y3900D01*
X82625Y3893D01*
X82672Y3882D01*
X82723Y3867D01*
X82774Y3849D01*
X82828Y3827D01*
X82883Y3798D01*
X82934Y3769D01*
X82985Y3733D01*
X83036Y3689D01*
X83079Y3642D01*
X83083Y3638D01*
X83090Y3631D01*
X83101Y3613D01*
X83116Y3591D01*
X83134Y3562D01*
X83152Y3529D01*
X83174Y3485D01*
X83196Y3438D01*
X83218Y3383D01*
X83240Y3321D01*
X83258Y3256D01*
X83276Y3179D01*
X83291Y3099D01*
X83302Y3012D01*
X83309Y2921D01*
Y2819D01*
X82100D01*
Y2815D01*
Y2808D01*
Y2797D01*
X82104Y2783D01*
X82108Y2746D01*
X82115Y2695D01*
X82129Y2644D01*
X82151Y2586D01*
X82177Y2531D01*
X82213Y2484D01*
X82217Y2481D01*
X82235Y2466D01*
X82257Y2448D01*
X82290Y2426D01*
X82330Y2404D01*
X82381Y2386D01*
X82435Y2371D01*
X82493Y2368D01*
X82512D01*
X82534Y2371D01*
X82559Y2375D01*
X82588Y2382D01*
X82621Y2393D01*
X82654Y2408D01*
X82683Y2430D01*
X82686Y2433D01*
X82697Y2440D01*
X82712Y2455D01*
X82726Y2477D01*
X82748Y2506D01*
X82766Y2539D01*
X82785Y2582D01*
X82803Y2630D01*
X83283Y2550D01*
Y2546D01*
X83280Y2539D01*
X83272Y2524D01*
X83265Y2506D01*
X83254Y2484D01*
X83243Y2459D01*
X83210Y2400D01*
X83170Y2335D01*
X83119Y2266D01*
X83058Y2204D01*
X82989Y2146D01*
X82985D01*
X82981Y2138D01*
X82967Y2135D01*
X82952Y2124D01*
X82934Y2113D01*
X82908Y2102D01*
X82883Y2091D01*
X82850Y2076D01*
X82777Y2051D01*
X82694Y2029D01*
X82595Y2015D01*
X82490Y2007D01*
X82468D01*
X82446Y2011D01*
X82413D01*
X82373Y2018D01*
X82326Y2025D01*
X82275Y2033D01*
X82224Y2047D01*
X82166Y2062D01*
X82108Y2084D01*
X82049Y2109D01*
X81991Y2138D01*
X81933Y2175D01*
X81878Y2215D01*
X81831Y2262D01*
X81784Y2317D01*
X81780Y2320D01*
X81776Y2328D01*
X81769Y2342D01*
X81754Y2360D01*
X81744Y2386D01*
X81729Y2415D01*
X81711Y2448D01*
X81696Y2488D01*
X81678Y2531D01*
X81664Y2579D01*
X81645Y2630D01*
X81634Y2688D01*
X81624Y2746D01*
X81613Y2808D01*
X81609Y2877D01*
X81605Y2946D01*
Y2950D01*
Y2965D01*
Y2990D01*
X81609Y3023D01*
X81613Y3059D01*
X81616Y3103D01*
X81624Y3150D01*
X81634Y3205D01*
X81664Y3318D01*
X81682Y3376D01*
X81704Y3438D01*
X81733Y3496D01*
X81765Y3551D01*
X81802Y3605D01*
X81842Y3656D01*
X81845Y3660D01*
X81853Y3667D01*
X81867Y3682D01*
X81886Y3696D01*
X81907Y3714D01*
X81937Y3736D01*
X81969Y3762D01*
X82006Y3787D01*
X82046Y3809D01*
X82093Y3835D01*
X82140Y3856D01*
X82195Y3875D01*
X82250Y3889D01*
X82311Y3904D01*
X82373Y3911D01*
X82439Y3915D01*
X82479D01*
X82508Y3911D01*
D02*
G37*
G36*
X88579Y4577D02*
X88612Y4574D01*
X88645Y4570D01*
X88685Y4566D01*
X88725Y4559D01*
X88816Y4537D01*
X88911Y4504D01*
X88954Y4482D01*
X89002Y4457D01*
X89042Y4428D01*
X89082Y4395D01*
X89086Y4391D01*
X89089Y4388D01*
X89100Y4377D01*
X89115Y4362D01*
X89129Y4344D01*
X89144Y4322D01*
X89184Y4268D01*
X89220Y4199D01*
X89249Y4122D01*
X89275Y4031D01*
X89278Y3980D01*
X89282Y3929D01*
Y3926D01*
Y3922D01*
Y3900D01*
X89278Y3867D01*
X89271Y3824D01*
X89260Y3776D01*
X89242Y3725D01*
X89220Y3671D01*
X89187Y3616D01*
X89184Y3609D01*
X89169Y3594D01*
X89151Y3569D01*
X89122Y3540D01*
X89086Y3503D01*
X89042Y3471D01*
X88991Y3438D01*
X88933Y3409D01*
X88936D01*
X88943Y3405D01*
X88954Y3401D01*
X88969Y3394D01*
X89005Y3372D01*
X89053Y3343D01*
X89104Y3310D01*
X89158Y3267D01*
X89209Y3216D01*
X89253Y3158D01*
X89257Y3150D01*
X89271Y3128D01*
X89289Y3096D01*
X89307Y3052D01*
X89329Y2997D01*
X89344Y2932D01*
X89359Y2863D01*
X89362Y2786D01*
Y2783D01*
Y2772D01*
Y2754D01*
X89359Y2728D01*
X89355Y2699D01*
X89351Y2662D01*
X89344Y2626D01*
X89333Y2586D01*
X89307Y2495D01*
X89289Y2448D01*
X89267Y2400D01*
X89242Y2353D01*
X89209Y2306D01*
X89176Y2262D01*
X89136Y2218D01*
X89133Y2215D01*
X89126Y2207D01*
X89115Y2197D01*
X89096Y2186D01*
X89075Y2167D01*
X89045Y2149D01*
X89016Y2131D01*
X88980Y2109D01*
X88940Y2087D01*
X88893Y2069D01*
X88845Y2051D01*
X88794Y2033D01*
X88736Y2022D01*
X88674Y2011D01*
X88612Y2004D01*
X88543Y2000D01*
X88510D01*
X88485Y2004D01*
X88456Y2007D01*
X88423Y2011D01*
X88387Y2015D01*
X88343Y2022D01*
X88252Y2044D01*
X88157Y2076D01*
X88110Y2095D01*
X88063Y2120D01*
X88015Y2146D01*
X87972Y2178D01*
X87968Y2182D01*
X87961Y2189D01*
X87946Y2200D01*
X87928Y2218D01*
X87910Y2240D01*
X87888Y2266D01*
X87862Y2299D01*
X87837Y2331D01*
X87811Y2371D01*
X87786Y2415D01*
X87764Y2462D01*
X87746Y2517D01*
X87728Y2572D01*
X87713Y2633D01*
X87706Y2695D01*
X87702Y2764D01*
Y2768D01*
Y2775D01*
Y2786D01*
Y2801D01*
X87706Y2841D01*
X87713Y2888D01*
X87728Y2946D01*
X87742Y3012D01*
X87768Y3077D01*
X87801Y3143D01*
Y3147D01*
X87804Y3150D01*
X87819Y3172D01*
X87844Y3201D01*
X87881Y3241D01*
X87924Y3285D01*
X87979Y3329D01*
X88044Y3369D01*
X88121Y3409D01*
X88117D01*
X88114Y3412D01*
X88092Y3423D01*
X88059Y3441D01*
X88019Y3463D01*
X87972Y3496D01*
X87928Y3532D01*
X87884Y3576D01*
X87848Y3623D01*
X87844Y3631D01*
X87833Y3649D01*
X87822Y3674D01*
X87808Y3714D01*
X87790Y3758D01*
X87779Y3813D01*
X87768Y3867D01*
X87764Y3929D01*
Y3933D01*
Y3940D01*
Y3955D01*
X87768Y3977D01*
X87771Y3998D01*
X87775Y4028D01*
X87790Y4093D01*
X87811Y4166D01*
X87848Y4246D01*
X87870Y4282D01*
X87895Y4322D01*
X87928Y4359D01*
X87961Y4395D01*
X87964Y4399D01*
X87972Y4402D01*
X87983Y4413D01*
X87997Y4424D01*
X88019Y4439D01*
X88041Y4453D01*
X88070Y4472D01*
X88106Y4490D01*
X88143Y4504D01*
X88183Y4522D01*
X88230Y4537D01*
X88281Y4552D01*
X88336Y4563D01*
X88394Y4574D01*
X88456Y4577D01*
X88521Y4581D01*
X88558D01*
X88579Y4577D01*
D02*
G37*
%LPC*%
G36*
X11953Y10987D02*
X6047D01*
X5015Y10851D01*
X4054Y10453D01*
X3228Y9819D01*
X2595Y8993D01*
X2196Y8032D01*
X2060Y7000D01*
X2196Y5968D01*
X2595Y5007D01*
X3228Y4181D01*
X4054Y3547D01*
X5015Y3149D01*
X6047Y3013D01*
X11953D01*
X12985Y3149D01*
X13946Y3547D01*
X14772Y4181D01*
X15405Y5007D01*
X15598Y5471D01*
X19816D01*
X19878Y5378D01*
X20622Y4881D01*
X21500Y4706D01*
X22378Y4881D01*
X23122Y5378D01*
X23619Y6122D01*
X23794Y7000D01*
X23619Y7878D01*
X23122Y8622D01*
X22378Y9120D01*
X21500Y9294D01*
X20622Y9120D01*
X19878Y8622D01*
X19816Y8529D01*
X15598D01*
X15405Y8993D01*
X14772Y9819D01*
X13946Y10453D01*
X12985Y10851D01*
X11953Y10987D01*
D02*
G37*
G36*
X82468Y3543D02*
X82442D01*
X82413Y3536D01*
X82377Y3529D01*
X82337Y3514D01*
X82293Y3496D01*
X82250Y3467D01*
X82209Y3427D01*
X82206Y3423D01*
X82195Y3405D01*
X82177Y3380D01*
X82159Y3343D01*
X82137Y3300D01*
X82122Y3245D01*
X82111Y3183D01*
X82108Y3114D01*
X82828D01*
Y3118D01*
Y3125D01*
Y3132D01*
X82825Y3147D01*
X82821Y3187D01*
X82814Y3230D01*
X82799Y3281D01*
X82781Y3336D01*
X82752Y3387D01*
X82719Y3430D01*
X82715Y3434D01*
X82701Y3449D01*
X82679Y3467D01*
X82650Y3489D01*
X82614Y3507D01*
X82570Y3525D01*
X82523Y3540D01*
X82468Y3543D01*
D02*
G37*
G36*
X88525Y4199D02*
X88503D01*
X88478Y4195D01*
X88445Y4188D01*
X88408Y4177D01*
X88372Y4162D01*
X88336Y4144D01*
X88303Y4115D01*
X88299Y4111D01*
X88292Y4100D01*
X88277Y4082D01*
X88263Y4057D01*
X88248Y4024D01*
X88234Y3987D01*
X88226Y3944D01*
X88223Y3893D01*
Y3886D01*
Y3867D01*
X88226Y3842D01*
X88234Y3809D01*
X88241Y3773D01*
X88256Y3736D01*
X88277Y3700D01*
X88303Y3667D01*
X88306Y3664D01*
X88317Y3656D01*
X88336Y3642D01*
X88361Y3627D01*
X88394Y3613D01*
X88430Y3598D01*
X88474Y3591D01*
X88521Y3587D01*
X88543D01*
X88569Y3591D01*
X88601Y3598D01*
X88638Y3605D01*
X88674Y3620D01*
X88711Y3642D01*
X88743Y3667D01*
X88747Y3671D01*
X88758Y3682D01*
X88769Y3700D01*
X88787Y3729D01*
X88802Y3762D01*
X88813Y3798D01*
X88823Y3845D01*
X88827Y3897D01*
Y3904D01*
Y3918D01*
X88823Y3944D01*
X88816Y3973D01*
X88805Y4009D01*
X88791Y4046D01*
X88772Y4082D01*
X88743Y4115D01*
X88740Y4118D01*
X88729Y4129D01*
X88711Y4140D01*
X88685Y4158D01*
X88652Y4173D01*
X88616Y4184D01*
X88572Y4195D01*
X88525Y4199D01*
D02*
G37*
G36*
X88529Y3205D02*
X88499D01*
X88467Y3198D01*
X88430Y3190D01*
X88387Y3176D01*
X88343Y3154D01*
X88299Y3121D01*
X88263Y3081D01*
X88259Y3074D01*
X88248Y3059D01*
X88237Y3034D01*
X88223Y3001D01*
X88205Y2961D01*
X88194Y2917D01*
X88183Y2866D01*
X88179Y2815D01*
Y2812D01*
Y2808D01*
Y2797D01*
Y2783D01*
X88186Y2746D01*
X88194Y2699D01*
X88205Y2648D01*
X88223Y2597D01*
X88248Y2546D01*
X88281Y2499D01*
X88285Y2495D01*
X88299Y2481D01*
X88321Y2466D01*
X88350Y2444D01*
X88387Y2426D01*
X88430Y2408D01*
X88481Y2393D01*
X88536Y2389D01*
X88561D01*
X88587Y2397D01*
X88623Y2404D01*
X88663Y2415D01*
X88703Y2433D01*
X88743Y2459D01*
X88783Y2495D01*
X88787Y2499D01*
X88798Y2517D01*
X88816Y2539D01*
X88834Y2575D01*
X88853Y2619D01*
X88871Y2673D01*
X88882Y2735D01*
X88885Y2808D01*
Y2812D01*
Y2815D01*
Y2837D01*
X88882Y2870D01*
X88874Y2910D01*
X88860Y2957D01*
X88842Y3005D01*
X88816Y3052D01*
X88783Y3096D01*
X88780Y3099D01*
X88765Y3114D01*
X88743Y3132D01*
X88714Y3150D01*
X88678Y3172D01*
X88634Y3187D01*
X88583Y3201D01*
X88529Y3205D01*
D02*
G37*
%LPD*%
D10*
X22357Y42899D02*
X22332Y42895D01*
X20597Y42617D02*
X19722Y42371D01*
X18928Y41928D01*
X18258Y41314D01*
X17748Y40562D01*
Y36961D02*
X17825Y36820D01*
X51000Y38323D02*
X51239Y38562D01*
Y42239D01*
X53856Y44857D01*
Y44857D01*
X64144D01*
X66000Y43000D01*
X83500Y45000D02*
X85000Y43500D01*
X83500Y45000D02*
Y47893D01*
X79893Y51500D02*
X83500Y47893D01*
X72425Y35772D02*
X73500Y36846D01*
X66886Y30679D02*
X71978Y35772D01*
X72425D01*
X66000Y24500D02*
Y29801D01*
X66878Y30679D01*
X66886D01*
X77500Y36846D02*
Y44800D01*
X76500Y45800D02*
X77500Y44800D01*
X9000Y7000D02*
X21500D01*
X73500Y30154D02*
X73697D01*
X74772Y29079D01*
Y28882D02*
Y29079D01*
Y28882D02*
X79215Y24439D01*
X84061D02*
X85000Y23500D01*
X79215Y24439D02*
X84061D01*
X53771Y64929D02*
X56000Y62700D01*
X42800Y60000D02*
X47729Y64929D01*
X53771D01*
X69500Y50000D02*
Y55500D01*
X72000Y58000D01*
X68500Y49000D02*
X69500Y50000D01*
X66000Y7900D02*
X73500D01*
X85000Y19400D02*
Y23500D01*
X73500Y7900D02*
X85000Y19400D01*
X42000Y6500D02*
X46500Y2000D01*
X54500D01*
X56000Y3500D01*
X39500Y6500D02*
X42000D01*
X34500Y44840D02*
X35500Y45000D01*
X35500D01*
X20597Y42617D02*
X21754Y42803D01*
X22332Y42895D01*
X22357Y42899D02*
X34500Y44840D01*
X17835Y36803D02*
X17879Y36726D01*
X17825Y36820D02*
X17835Y36803D01*
X17879Y36726D02*
X21993Y29500D01*
X17748Y36961D02*
Y40562D01*
X21993Y29500D02*
X26000D01*
X35000Y28248D02*
Y36500D01*
X39303Y23846D02*
X39500D01*
X35000Y28248D02*
X38228Y25020D01*
Y24921D02*
Y25020D01*
Y24921D02*
X39303Y23846D01*
X35000Y15000D02*
Y28248D01*
Y15000D02*
X37500Y12500D01*
X32000Y20547D02*
Y23945D01*
X32250Y24195D01*
X26000Y17500D02*
X28953D01*
X32000Y20547D01*
X46900Y12500D02*
X53500Y19100D01*
X37500Y12500D02*
X46900D01*
X38700Y30654D02*
X44197D01*
X49500Y29800D02*
X51000D01*
X58600Y19100D02*
X61000Y16700D01*
X53500Y19100D02*
X58600D01*
X61000Y6823D02*
Y16700D01*
X53600Y15100D02*
X58200D01*
X45272Y29221D02*
Y29579D01*
X45500Y24500D02*
Y28993D01*
X45272Y29221D02*
X45500Y28993D01*
X44197Y30654D02*
X45272Y29579D01*
X47500Y46500D02*
X49825Y48825D01*
X47500Y31800D02*
Y46500D01*
X49825Y48825D02*
X54275D01*
X47500Y31800D02*
X49500Y29800D01*
X66000Y38323D02*
Y43000D01*
X61000Y51000D02*
X63000Y49000D01*
X61000Y51000D02*
Y59677D01*
X63000Y49000D02*
X68500D01*
X46700Y50000D02*
X51000Y54300D01*
X44000Y47300D02*
X46700Y50000D01*
X66000Y6823D02*
Y7900D01*
X39500Y17154D02*
X46254D01*
X51500Y22400D01*
X63900D01*
X66000Y24500D01*
X77500Y36846D02*
X80846Y33500D01*
X85000D01*
X73500Y36846D02*
Y42800D01*
X76500Y45800D01*
Y56000D01*
X74500Y58000D02*
X76500Y56000D01*
X72000Y58000D02*
X74500D01*
X56000Y59677D02*
X61000D01*
X56000D02*
Y62700D01*
X35193Y60000D02*
X42800D01*
X33000Y38500D02*
X35000Y36500D01*
X26000Y38500D02*
X33000D01*
X19300Y60000D02*
X28500D01*
X18800Y60500D02*
X19300Y60000D01*
X9000Y60500D02*
X18800D01*
X28500Y57691D02*
Y60000D01*
Y57691D02*
X30191Y56000D01*
X39300D01*
X51000Y12500D02*
X53600Y15100D01*
X51000Y6823D02*
Y12500D01*
X61000Y28177D02*
Y38323D01*
X56000Y28177D02*
Y38323D01*
X51000Y28177D02*
Y29800D01*
X54275Y48825D02*
X56100Y47000D01*
X70800D01*
X73200Y49400D01*
Y51500D01*
X56000Y3500D02*
Y6823D01*
X66000Y53000D02*
Y59677D01*
X44000Y37346D02*
Y47300D01*
X51000Y54300D02*
Y59677D01*
X26000Y50000D02*
X46700D01*
D13*
X39500Y6500D02*
D03*
X26000Y38500D02*
D03*
Y50000D02*
D03*
Y17500D02*
D03*
Y29500D02*
D03*
X9000Y60500D02*
D03*
Y7000D02*
D03*
X85000Y23500D02*
D03*
Y33500D02*
D03*
Y43500D02*
D03*
D14*
X39500Y23846D02*
D03*
Y17154D02*
D03*
X44000Y37346D02*
D03*
Y30654D02*
D03*
X73500Y30154D02*
D03*
Y36846D02*
D03*
D15*
X28500Y60000D02*
D03*
X35193D02*
D03*
X73200Y51500D02*
D03*
X79893D02*
D03*
D16*
X66000Y6823D02*
D03*
X61000D02*
D03*
X56000D02*
D03*
X51000D02*
D03*
Y28177D02*
D03*
X56000D02*
D03*
X61000D02*
D03*
X66000D02*
D03*
Y38323D02*
D03*
X61000D02*
D03*
X56000D02*
D03*
X51000D02*
D03*
Y59677D02*
D03*
X56000D02*
D03*
X61000D02*
D03*
X66000D02*
D03*
D23*
X88500Y10500D02*
D03*
Y55000D02*
D03*
D24*
X53856Y44857D02*
D03*
X73500Y7900D02*
D03*
X35500Y45000D02*
D03*
X32250Y24195D02*
D03*
X21500Y7000D02*
D03*
X58200Y15100D02*
D03*
X39300Y56000D02*
D03*
X45500Y24500D02*
D03*
X66000Y53000D02*
D03*
X38700Y30654D02*
D03*
M02*
